<?xml version="1.0" encoding="utf-8"?>
<!-- Generator: Adobe Adobe Illustrator 24.2.0, SVG Export Plug-In . SVG Version: 6.00 Build 0)  -->
<svg version="1.1" xmlns="http://www.w3.org/2000/svg" xmlns:xlink="http://www.w3.org/1999/xlink" x="0px" y="0px"
	 viewBox="0 0 2500 2500" style="enable-background:new 0 0 2500 2500;" xml:space="preserve">
<style type="text/css">
	.st0{fill:#FFCBA6;}
	.st1{fill:#424242;}
	.st2{fill:#333333;}
	.st3{fill:#FF0000;}
	.st4{fill:#00FF00;}
	.st5{fill:#51331D;}
	.st6{fill:#FFBB8A;}
	.st7{fill:#ED9E66;}
	.st8{fill:#DBB091;}
	.st9{fill:#F5826D;}
	.st10{fill:#000C3B;}
	.st11{clip-path:url(#SVGID_2_);fill:#51331D;}
	.st12{clip-path:url(#SVGID_4_);fill:#51331D;}
	.st13{fill:none;stroke:#FFFFFF;stroke-width:15;stroke-miterlimit:10;}
	.st14{fill:#FFFFFF;}
</style>
<g id="Layer_1">
</g>
<g id="Body">
	<polyline class="st0" points="2088.26,2498.47 2083.27,2438.17 2077.83,2358.82 2070.57,2292.62 2066.04,2252.72 2060.15,2218.27 
		2041.56,2161.14 2016.17,2113.53 1970.83,2062.29 1908.71,2017.86 1818.63,1977.09 1727.5,1946.68 1638.57,1915.96 
		1572.37,1882.46 1536.71,1857.69 1510.33,1835.47 1491.96,1813.09 1477.83,1793.26 1462.95,1765.78 1450.62,1738.06 
		1436.19,1696.66 1427.18,1655.51 1415.75,1591.97 1305.45,1613.74 1241.48,1606.2 1181.12,1590.1 1116.58,1553.76 1087.35,1535 
		1091.21,1699.4 1089.23,1732.55 1081.86,1758.08 1064.52,1790.96 1024.77,1837.42 975.94,1874.29 870.87,1933.3 801.75,1961.8 
		724.7,1985.35 662.19,2010.19 629.01,2026.88 606.52,2039.4 572,2066.23 546.49,2089.41 522.49,2124.81 504.82,2160.51 
		482.5,2218.27 461.01,2281.56 446.15,2334.89 434.5,2383.85 423.98,2433.4 412.2,2500 	"/>
</g>
<g id="Head">
	<polygon class="st0" points="980.06,1391.22 1006,1441.33 1032.34,1477.89 1053.3,1502.8 1076.28,1526.3 1103.9,1545.67 
		1123.32,1557.67 1154.55,1575.26 1184.34,1591.55 1220.09,1600.92 1241.07,1605.99 1276.19,1610.44 1302.61,1613.91 
		1334.82,1607.88 1361.32,1602.94 1385.73,1597.49 1414.31,1592.03 1453.01,1573.07 1491.72,1546.31 1517.18,1521.63 
		1539.11,1497.87 1561.39,1466.56 1582.86,1431.87 1598.06,1404.75 1629.17,1400.02 1672.56,1382.81 1693.15,1368.3 1717.8,1345.83 
		1736.91,1319.87 1755.1,1285.09 1768.21,1250.31 1775.05,1211.08 1773.2,1173.14 1760.94,1139.93 1736.84,1119.53 1708.17,1107.52 
		1675.4,1102.31 1654.18,1101.34 1629.63,1104.22 1630.42,1032.24 1629.02,992.81 1626.62,947.16 1621.47,904.75 1616.35,863.57 
		1605.28,813.82 1592.15,765.23 1572.04,709.49 1552.2,665.82 1526.49,631.61 1490.56,601.47 1448.75,581.08 1403.68,567.25 
		1360.27,558.34 1317.32,555.03 1269.88,554.54 1219.24,560.07 1165.68,571.65 1110.15,591.03 1064.27,614.84 1018.86,644.3 
		983.78,676.37 955.15,710.85 935.43,743.29 918.9,781.73 907.08,823.85 901.53,881.84 900.06,944.64 902.64,1007.44 
		906.71,1089.44 892.08,1085.11 875.53,1083.5 859.14,1084.14 843.56,1089.61 827.81,1098.92 815.28,1110.81 804.2,1125.11 
		797.77,1138.29 793.11,1154.35 790.54,1174.28 791.18,1194.2 794.4,1214.92 798.57,1236.61 805.32,1260.23 814,1286.26 
		823.8,1310.52 835.53,1331.57 847.88,1350.92 863.33,1366.97 878.17,1378.48 894.37,1386.35 911.02,1391.8 924.81,1394.65 
		938.74,1395.88 958.99,1395.57 976.06,1393.1 	"/>
</g>
<g id="Layer_4">
	<path class="st1" d="M2088.76,2497.47c-5.48-60.68-9.79-145.36-17.68-205.85c-5.86-68.37-22.89-141.35-68.26-194.75
		c-49.15-62.2-124.96-97.48-197.35-125.35c-68.01-23.77-155.79-47.6-218.63-83c-38.16-20.55-74.4-47.97-99.53-83.67
		c-44.12-60.92-59.19-141.04-71.06-213.88l-110.29,21.77l-63.97-7.54l-50.88-13.58c-5.76-1.54-11.27-3.9-16.34-7.05
		c-22.15-13.78-70.69-38.93-86.91-50.58c0,0,0,0,0,0c-3.59,53.36,15.92,181.94-9.18,230.08c-27.17,52.33-72.84,92.63-123.73,121.28
		c-53.2,31.13-115.74,64.88-174.76,82.18c-66.05,19.79-138.53,43.88-193.5,86.66c-56.03,39.08-81.43,101.13-103.69,163.07
		c-32.3,87.5-55.42,189.79-70.31,281.73"/>
	<path class="st2" d="M576.05,2062.07C576.05,2062.07,576.05,2062.07,576.05,2062.07l26.99,30.1c2.61,2.82,5.32,5.55,8.1,8.2
		l16.41,15.59c9.22,8.76,19.17,16.72,29.74,23.8l29.94,20.03l68.15,42.06l46.99,29.29c12.85,8.01,26.25,15.13,40.08,21.3l41.68,18.6
		c0,0,0,0,0,0l93.2,34.59l85.8,26.87c6.21,1.95,12.5,3.66,18.85,5.12l81.76,18.93l73.72,15.23c9.78,2.02,19.67,3.44,29.62,4.25
		l56.7,6.51l88.06,6.86c11.38,1.16,22.84,1.4,34.27,0.71l0,0c41.2-2.48,81.31-14.2,117.37-34.27l24.9-13.87
		c3.25-1.81,6.44-3.71,9.57-5.71l66.67-42.58c5.58-3.56,10.95-7.45,16.07-11.65l50.92-41.74l62.46-51.89l56.69-50.93l48.04-42.28
		l51.06-49.49c0,0,0,0,0,0c0.01,0,7.27,5.79,9.71,7.8c2.32,1.92,9.34,7.91,9.34,7.91c0.62,0.51,8.72,7.53,9.28,8.1
		c1.87,1.9,7.33,7.72,7.33,7.72c0.55,0.54,6.09,6.6,6.6,7.17l8.94,10.18l11.22,13.95c0.85,1.05,1.64,2.15,2.36,3.3l8.93,14
		c0,0,7.09,10.97,8.69,14.58c0.42,0.95,4.44,9.85,4.86,10.8l4.38,9.48c0.72,1.64,5.38,13.81,5.96,15.5l4.16,11.93c0,0,0,0,0,0
		l5.31,18.53c0.37,1.38,4.69,19.28,4.94,20.69l5.39,30.21c0.35,1.96,1.63,15.44,1.84,17.43l2.04,17.02l3.36,31.34l3.45,32.95
		l1.84,25.02l2.78,36.87l6.11,79.33c0,0,0,0,0,0L412.7,2499c0,0,0,0,0,0l2.59-17.02l3.27-18.09l3.66-18.48l5.4-27.37l5.28-25.62
		l4.88-22.06l4.46-19.96l5.96-21.44l4.23-17.95c0,0,0,0,0,0l5.38-17.33l5.48-17.71l6-19.35l5.41-16.98l6.82-18.17l10.2-28.41
		l11.84-29.09l7.21-15.62c0,0,0,0,0,0l7.3-13.77l5.96-10.77c0,0,0,0,0,0l6.23-9.89l12.73-18.17c0,0,0,0,0,0l12-13.8c0,0,0,0,0,0
		l9.16-9.34c0,0,0,0,0,0L576.05,2062.07z"/>
	<path class="st3" d="M411.24,2481.95"/>
	<path class="st0" d="M1089.79,1605.01l1,34.44l0.8,29.24l-0.31,24.96l-0.97,14.58c-0.46,6.89-1.27,13.75-2.43,20.56l-1.68,9.82
		c-1.15,6.74-3.1,13.33-5.81,19.61l-3.98,9.23c-1.18,2.73-2.56,5.37-4.12,7.89l-6.8,10.97c-1.44,2.32-2.99,4.57-4.64,6.74
		l-9.2,12.08c-0.69,0.9-1.4,1.79-2.14,2.64l-10.34,12c-1.96,2.28-4.05,4.45-6.25,6.49l-14.28,13.27l-17.33,15.05l-10.39,7.7
		c-5.48,4.07-11.13,7.91-16.92,11.52l-11.05,6.89v0c17.91,19.87,38.15,37.5,60.27,52.53l0,0c7.43,5.05,15.27,9.47,23.44,13.21
		l20.84,9.56c17.8,8.17,36.21,14.96,55.05,20.31l0,0c13.34,3.79,26.88,6.8,40.57,9.01l20.24,3.28c11.24,1.82,22.56,3.16,33.91,4.01
		l26.89,2.02l1.66,0.04c29.56,0.7,58.12-1.52,88.17-7.2l0,0c3.81-0.72,7.56-1.71,11.22-2.95l35.78-12.18
		c6.89-2.34,13.7-4.9,20.43-7.67l0.7-0.29c25.61-10.53,49.55-24.76,71.03-42.24l0,0l26.36-22.51l16.68-15.44
		c8.63-7.99,16.47-16.8,23.41-26.29l0,0l-20.22-16.51l-15.98-16.5l-15.7-19.71l-14.72-22.9l-10.29-19l-9.69-22.21l-8.09-22.03
		l-6.42-21.53l-4.08-14.65l-2.78-11.76l-2.66-12.79L1089.79,1605.01z"/>
</g>
<g id="Layer_9">
	<path class="st4" d="M1763.2,2289.29c-3.72-7.57-10.8-12.75-17.86-16.98c-4.71-2.83-9.63-5.28-14.69-7.39
		c0.01-0.02,0.02-0.04,0.03-0.05c0.79-1.61-1.62-3.03-2.41-1.41c-0.07,0.14-0.13,0.28-0.2,0.42c-2.54-0.98-5.11-1.88-7.71-2.69
		c0.29-0.63,0.58-1.27,0.87-1.91c0.75-1.62-1.66-3.04-2.41-1.41c-0.39,0.84-0.77,1.68-1.15,2.51c-6.18-1.77-12.51-3.07-18.89-3.89
		c-6.44-0.83-12.94-1.16-19.43-1.03c1.69-3,3.4-6,5.13-8.98c0.82-1.42-1.22-2.51-2.14-1.25c-2.53,3.44-4.99,6.91-7.43,10.4
		c-4.26,0.23-8.51,0.66-12.72,1.29c1.63-3.02,3.29-6.02,4.99-8.99c0.62-1.09-0.95-1.95-1.65-0.97c-2.53,3.54-5.02,7.1-7.53,10.65
		c-2.81,0.51-5.6,1.11-8.36,1.79c-4.67,1.16-9.28,2.57-13.82,4.2c3.04-4.7,6.13-9.37,9.29-13.99c0.81-1.18-1.11-2.3-1.92-1.12
		c-3.73,5.42-7.37,10.9-10.91,16.44c-9.31,3.61-18.26,8.16-26.7,13.47c-6.84,4.3-13.36,9.11-19.53,14.33
		c-6.09,5.16-12.01,10.71-17.25,16.74c-2.39,2.75-4.85,6.42-4.3,10.25c0.56,3.9,4.13,5.64,7.59,6.47
		c8.85,2.12,18.07,1.91,27.07,0.91c0.11,1.29,0.5,2.53,1.35,3.68c0.29,0.39,0.74,0.65,1.24,0.5c3.58-1.01,6.48-3.2,9.04-5.79
		c5.48-0.87,10.95-1.89,16.36-3.09c0.16-0.04,0.32-0.07,0.48-0.11c-1.34,3.72-2.39,7.54-2.79,11.53c-0.09,0.94,0.92,1.42,1.68,1.28
		c5.87-1.04,8.67-7.23,11.02-12.01c0.63-1.28,1.27-2.55,1.91-3.83c2.86-0.84,5.69-1.76,8.49-2.77c-1.84,5.43-3.33,11.2-0.96,16.67
		c0.25,0.57,1.01,0.75,1.56,0.63c3.1-0.68,4.87-3.47,6.39-6.02c1.94-3.26,3.71-6.61,5.32-10.04c1.24-2.66,2.37-5.36,3.41-8.1
		c3.91-2.09,7.63-4.5,10.91-7.42c-1.33,2.76-2.63,5.53-3.87,8.32c-1.26,2.83-2.54,5.67-3.65,8.57c-1.08,2.8-1.76,5.73-1.04,8.71
		c0.2,0.84,1.31,1.32,2.05,0.83c7.08-4.71,9.72-12.75,13.66-19.87c-2.01,6.07-3.74,12.23-5.18,18.47c-0.34,1.47,1.85,2.58,2.55,1.08
		c5.36-11.45,8.6-23.73,10.19-36.25c0.18-1.41-2.04-1.4-2.21,0c-0.29,2.26-0.67,4.5-1.11,6.73c-0.25,0.05-0.48,0.15-0.67,0.34
		c-4.03,3.97-6.45,9.11-8.94,14.1c-2.08,4.16-4.32,8.47-7.84,11.56c0.09-1.99,0.81-3.95,1.57-5.8c1.15-2.82,2.37-5.6,3.62-8.37
		c2.45-5.43,5.05-10.79,7.79-16.08c0.43-0.83,0.03-1.61-0.62-1.92c0.02-0.38,0.02-0.77-0.03-1.16c-0.22-1.82-1.06-3.36-2.24-4.61
		c9.14-0.08,18.29-0.06,27.43,0.12c-3.42,8.18-6.73,16.4-9.89,24.68c-0.95,2.49-1.89,4.98-2.81,7.47c-0.97,2.61-2.18,5.27-2.72,8
		c-0.25,1.28,1.52,2.2,2.2,0.93c1.12-2.07,1.81-4.4,2.62-6.6c0.84-2.27,1.68-4.53,2.54-6.8c1.71-4.52,3.46-9.03,5.26-13.53
		c1.88-4.72,3.81-9.42,5.78-14.1c2.88,0.07,5.76,0.15,8.64,0.26c-3.41,8.36-6.52,16.84-9.33,25.43c-1.56,4.78-3.07,9.59-4.38,14.45
		c-0.3,1.12,0.99,2.2,2.02,1.55c2.26-1.43,4.25-3.22,5.92-5.27c0.32,2.79,1.55,5.6,4.46,6.47c1.78,0.53,3.59,0.2,5.21-0.61
		c1.05,0.06,2.13-0.15,3.18-0.71c1.11-0.59,2.07-1.52,2.71-2.61c1.15,0.76,2.52,1.27,3.79,1.49c4.04,0.72,8.19,0.15,12.01-1.28
		c7.31-2.73,14.18-8.02,18.53-14.53c2.13-3.19,3.56-6.81,3.91-10.64C1766,2296.99,1764.98,2292.92,1763.2,2289.29z M1672.87,2258.56
		c-5.12,7.44-10.06,15-14.79,22.68c-2.79-0.26-5.59-0.46-8.39-0.57c2.41-4.76,4.87-9.5,7.38-14.21c1.14-2.14,2.28-4.28,3.43-6.42
		C1664.6,2259.35,1668.73,2258.86,1672.87,2258.56z M1631.91,2318.42c0.28-0.68,0.57-1.35,0.87-2.02
		c2.49-5.69,5.08-11.34,7.73-16.96c1.9-4.03,3.85-8.04,5.83-12.03c2.71-0.06,5.42-0.11,8.13-0.17
		c-5.77,9.66-11.26,19.51-16.44,29.54C1635.99,2317.36,1633.95,2317.91,1631.91,2318.42z M1647.73,2284.58
		c0.19-0.39,0.38-0.77,0.57-1.16c2.73,0.08,5.46,0.24,8.18,0.46c-0.1,0.17-0.21,0.34-0.31,0.52
		C1653.36,2284.46,1650.54,2284.52,1647.73,2284.58z M1610.69,2322.67c-2.99,0.49-5.99,0.95-9,1.33c0.14-0.53,0.32-1.06,0.51-1.57
		c0.99-2.63,2.44-5.12,3.73-7.62c2.82-5.46,5.75-10.86,8.75-16.22c1.99-3.57,4.04-7.11,6.1-10.63c5.4-0.1,10.8-0.22,16.19-0.34
		c-6.74,9.63-13.55,19.21-20.85,28.43C1614.42,2318.21,1612.66,2320.55,1610.69,2322.67z M1638.33,2284.8
		c-5.29,0.12-10.59,0.24-15.88,0.34c0.07-0.12,0.14-0.24,0.21-0.35c5.72-0.78,11.49-1.24,17.27-1.38c-0.32,0.46-0.64,0.92-0.96,1.38
		L1638.33,2284.8z M1647.05,2280.6c-0.37-0.01-0.74-0.02-1.12-0.03c-0.48-0.01-0.96,0-1.44-0.01c2.83-4.05,5.65-8.11,8.47-12.16
		c0.8-1.15,1.6-2.3,2.41-3.45c-2.76,5.02-5.48,10.08-8.09,15.19C1647.2,2280.3,1647.13,2280.45,1647.05,2280.6z M1642.54,2283.36
		c1.04-0.01,2.08,0,3.11,0.01c-0.21,0.42-0.43,0.85-0.64,1.27c-1.14,0.03-2.28,0.05-3.42,0.08
		C1641.9,2284.27,1642.22,2283.82,1642.54,2283.36z M1660.72,2281.5c2.99-4.81,6.03-9.58,9.17-14.29c-2.57,4.78-5.05,9.6-7.44,14.47
		C1661.87,2281.62,1661.3,2281.56,1660.72,2281.5z M1655.64,2260.94c-4.59,6.53-9.17,13.08-13.73,19.63
		c-5.83,0.06-11.65,0.45-17.43,1.16c2.86-4.76,5.79-9.49,8.78-14.18c1.47-0.57,2.95-1.13,4.44-1.65
		C1643.57,2263.84,1649.56,2262.19,1655.64,2260.94z M1587.56,2325.03c-4.4,0.02-8.8-0.31-13.11-1.18c-3.11-0.63-7.65-1.6-7.23-5.71
		c0.37-3.6,3.38-6.57,5.72-9.07c2.55-2.74,5.19-5.39,7.91-7.96c5.46-5.15,11.24-9.97,17.32-14.36c9.8-7.07,20.37-13.08,31.52-17.75
		c-2.72,4.33-5.4,8.69-8.02,13.09c-1.2,0.17-2.41,0.35-3.61,0.55c-4.54,0.74-9.04,1.69-13.5,2.83c-1.52,0.39-1.21,2.76,0.37,2.74
		c4.42-0.05,8.84-0.12,13.26-0.2c-4.98,8.6-9.77,17.31-14.34,26.14c-1.46,2.81-3.8,6.52-4.53,10.14
		C1595.42,2324.73,1591.5,2325.02,1587.56,2325.03z M1601.92,2328.91c-0.34-0.67-0.49-1.37-0.54-2.09c1.88-0.23,3.77-0.47,5.65-0.74
		C1605.48,2327.28,1603.79,2328.26,1601.92,2328.91z M1613.77,2322.16c0.47-0.56,0.93-1.12,1.38-1.68
		c4.4-5.42,8.63-10.97,12.75-16.59c3.96-5.39,7.84-10.85,11.69-16.32c1.33-0.03,2.66-0.06,3.99-0.09
		c-4.4,8.84-8.64,17.76-12.67,26.77c-0.73,1.63-1.44,3.27-2.11,4.92C1623.82,2320.32,1618.79,2321.3,1613.77,2322.16z
		 M1632.62,2327.11c-1.25,2.01-2.8,3.83-4.9,4.81c0.56-3.54,1.62-6.97,2.9-10.32c1.9-0.45,3.8-0.94,5.69-1.45
		C1635.16,2322.51,1634.01,2324.89,1632.62,2327.11z M1647.71,2303.63c3.07-5.54,6.25-11.02,9.52-16.45
		c0.87-0.02,1.74-0.04,2.61-0.05c-3.98,8.48-7.61,17.11-10.74,25.96c-2.61,0.99-5.25,1.91-7.92,2.74
		C1643.3,2311.73,1645.48,2307.67,1647.71,2303.63z M1658.21,2315.51c-1.45,3.17-3.05,6.27-4.78,9.3c-1.13,1.97-2.37,4.73-4.49,5.89
		c-1.57-5.01,0.61-10.67,2.29-15.45c0.59-0.23,1.19-0.46,1.78-0.7c2.32-0.95,4.64-1.97,6.94-3.06
		C1659.39,2312.84,1658.82,2314.18,1658.21,2315.51z M1665.11,2305.54c0.78-2.29,1.52-4.6,2.16-6.94c1.6,1.01,3.55,1.36,5.53,1.08
		c0.17-0.03,0.34-0.07,0.51-0.1c-0.64,0.6-1.3,1.18-1.99,1.74C1669.38,2302.9,1667.27,2304.27,1665.11,2305.54z M1678.06,2292.2
		c0.01,0.71-0.16,1.39-0.43,2.04c-1.37,1.1-2.85,2.1-4.54,2.56c-1.83,0.49-4.2,0.22-5.39-1.42c-0.66-0.92-2.22-0.91-2.54,0.33
		c-1.02,4.01-2.25,7.97-3.68,11.85c-0.03,0.01-0.05,0.03-0.08,0.04c-2.92,1.53-5.9,2.9-8.93,4.16c1.72-4.75,3.57-9.44,5.56-14.08
		c1.53-3.56,3.13-7.1,4.78-10.6c0.42-0.01,0.84-0.02,1.25-0.02c3.28-0.06,6.56-0.1,9.84-0.14
		C1676.12,2287.95,1678.01,2289.62,1678.06,2292.2z M1697.2,2284.06c-1.14-0.01-2.29-0.01-3.43-0.02c0.03-0.32-0.15-0.67-0.57-0.67
		c-0.42,0-0.6,0.35-0.57,0.67c-6.03-0.02-12.07,0-18.1,0.07c-0.36-0.16-0.73-0.3-1.09-0.43c-2.59-0.89-5.39-1.35-8.18-1.69
		c2.85-5.82,5.85-11.57,8.95-17.26c1.17-2.15,2.37-4.29,3.56-6.43c1.57-0.05,3.15-0.09,4.72-0.08c11.48,0.03,22.96,1.58,34.01,4.7
		c-3.21,7.05-6.34,14.15-9.35,21.29C1703.83,2284.14,1700.52,2284.09,1697.2,2284.06z M1710.14,2284.28
		c1.42-3.35,2.86-6.69,4.32-10.01c1.55-3.53,3.14-7.04,4.74-10.54c2.59,0.8,5.14,1.69,7.67,2.66c-2.86,5.98-5.57,12.03-8.12,18.15
		C1715.88,2284.43,1713.01,2284.35,1710.14,2284.28z M1725.43,2316.69c-0.11,3.34-1.28,7.83-4.26,9.81
		c-1.27-0.25-2.42-1.19-3.15-2.31c-3.05-4.7,0.04-10.96,2.78-15.08c0.49-0.73,1.35-1.97,2.37-1.84c1.06,0.13,1.41,1.6,1.62,2.46
		C1725.32,2311.99,1725.5,2314.38,1725.43,2316.69z M1714.41,2322.83c0.31,1.12,0.78,2.2,1.49,3.18c0.36,0.5,0.77,0.96,1.22,1.37
		C1715.29,2326.87,1714.59,2324.79,1714.41,2322.83z M1755.69,2314.68c-5.18,5.27-12.43,9.98-20,10.34c-1.79,0.09-3.73,0-5.43-0.62
		c-0.63-0.23-1.43-0.64-2-1.19c0.03-0.85-0.15-1.7-0.59-2.5c0.25-1.09,0.4-2.2,0.47-3.31c0.2-3.08,0.06-6.75-1.07-9.66
		c-0.54-1.4-1.49-2.71-3.01-3.12c-1.61-0.43-3.16,0.28-4.29,1.4c-1.26,1.24-2.08,2.89-2.89,4.44c-0.49-0.29-1.18-0.24-1.6,0.37
		c-1.79,2.53-2.93,5.51-3.34,8.59c-0.11,0.17-0.22,0.34-0.34,0.5c-1.11,1.52-2.42,2.89-3.85,4.12c3.78-12.4,7.98-24.63,12.86-36.63
		c0.76,0.03,1.53,0.05,2.29,0.09c11.08,0.48,22.21,1.15,33.24,2.33c1.62,0.17,1.61-2.36,0-2.54c-9.84-1.06-19.66-1.93-29.54-2.42
		c-1.63-0.08-3.25-0.15-4.88-0.21c0.88-2.11,1.78-4.22,2.71-6.32c1.62-3.67,3.32-7.31,5.05-10.92c6.43,2.66,12.65,5.92,18.44,9.79
		c6.46,4.32,12.56,10.05,14.49,17.85C1764.22,2302.48,1760.83,2309.45,1755.69,2314.68z"/>
</g>
<g id="Layer_7">
	<g>
		<path class="st5" d="M1096.58,1437.63l-9.52-10.1l-11.49-9.14l-7.3-6.36l-15.15-14.49c-0.81-0.81-1.59-1.66-2.33-2.54
			l-15.85-20.91l-13.72-17.38l-9.89-16.89l-5.6-12.23l-11.72-19.83l-15.03-56.32l-12.49-46.68l-11.74-53.88l-9.74-35.3l-11.24-47.14
			l-12.49-34.37l-4.72-44.69l-3.25-52.62l-0.5-52.62l2.5-49.12l2.3-27.04l3.3-17.82l4.95-18.84l6.24-17.4l10.13-23.47l16.55-27.89
			l17.76-22.64l21.93-22.64l21.93-18.76l23.66-16.27l36.22-21.13l40.05-17.15l33.52-12.97l36.9-9.41l40.67-7.87l30.93-2.63
			l29.04-1.54l36.83,1.32l30.93,3.07l31.4,5.71l31.63,8.12l30.22,9.66l26.91,12.51l21.25,12.73l26.17,24.12l16.11,20.8l12.75,22.36
			l16.83,35.56l11.78,32.43l12.27,39.58l12.27,49.2l5.77,41.82l3.85,32.43l2.89,38.46l2.4,27.51l-0.96,44.73v35.33l-3.68,48.43
			l-4.53,38.45l-6.94,50.85l-5.6,46.38l-4.8,42.41l-9.5,46.67l-25.52,37.74l-23.3,36.66l-29.09,28l-30.22,30.28l-37.94,23.44
			l-27.59,11.59l15.06-0.96c22.82-1.45,45.09-7.14,65.51-16.73l0,0c5.32-2.5,10.39-5.43,15.14-8.77l20.07-14.07
			c4.03-2.82,7.87-5.86,11.52-9.1l18.55-16.45l24.59-23.67l16.24-16.34c4.78-4.81,9.24-9.88,13.36-15.2l7.45-9.61
			c2.92-3.76,5.64-7.65,8.16-11.66l8.43-13.39c3.18-5.06,6.1-10.25,8.74-15.58l5.44-10.98l15.04-51.09l6.05-50.08l7.84-56.09
			l-27.8,8.7l16.3-42.49l11.11-92.42l11.08-94.15l3.99-71.07v0c-1.69-39.5-0.72-47.52-5.03-72.21l-9.85-40.77l-7.98-25.02
			c-5.27-16.54-11.92-32.67-19.87-48.25l-11.64-22.8c-3.58-7.01-8.39-13.42-14.24-18.96h0c-21.61-20.48-45.66-38.61-71.69-54.03h0
			c-22.5-13.34-46.64-24.13-71.89-32.15l0,0c-24.8-7.87-50.32-13.64-76.25-17.21h0c-15.2-2.1-30.49-3.6-45.82-4.51l-32.73-1.94
			c-12.63-0.75-25.29-1.06-37.95-0.93l-18.08,0.19c-17.26,0.18-34.47,1.57-51.5,4.18h0c-38.89,5.95-76.84,16.37-112.96,31.03
			l-0.85,0.35c-10.55,4.28-20.83,9.12-30.79,14.48l-46.62,25.11c-20.13,10.84-38.79,23.88-55.58,38.86l-34.15,30.45
			c-10.45,9.32-19.88,19.58-28.15,30.64l-17.14,22.92c-20.96,28.02-33.29,60.84-35.66,94.91l-3.11,44.7
			c-0.22,3.18-0.29,6.36-0.2,9.54l1.97,69.46c0.09,3.32,0.17,9,0.47,12.01s1.79,13.62,2.77,18.06l11,49.16l2.73,15.44l23.1,101.67
			l15.54,62.12l2.36,55.15l10.87,45.39l1.15,14.33l39.97,51.63c1.56,1.99,3.25,3.9,5.05,5.71l20.01,20.09
			c2.82,2.83,5.92,5.42,9.25,7.73l10.67,7.72c1.49,1.08,3.04,2.08,4.65,3.01l12.18,7.06c1.73,1,3.51,1.91,5.35,2.73l26.88,11.97"/>
		<polyline class="st5" points="1620.2,1047.94 1618.55,1043.8 1615.01,1036.12 1614,1021.02 1613.74,1000.73 1613.74,979.5 
			1612.47,960.63 1612.47,953.08 1611.97,943.41 1610.7,925.01 1610.95,904.49 1610.45,885.15 1608.42,859.67 1607.4,841.98 
			1605.88,832.3 1608.42,824.76 1615.01,833.25 1621.86,862.03 1624.65,877.12 1627.44,891.99 1630.99,913.69 1630.74,937.75 
			1629.22,963.46 1630.74,1020.55 1627.44,1042.25 1624.36,1050.26 1621.63,1050.52 1620.37,1048.37 		"/>
	</g>
	<path class="st5" d="M916.11,1124.64"/>
</g>
<g id="Layer_6">
	<path class="st6" d="M1088.36,1594.54l1.45,28.17c0.05,0.97,0.42,1.91,1.04,2.65l1.34,1.59c5.29,6.3,11.11,12.14,17.41,17.45
		l1.67,1.41l13.31,10.47l8.26,6.44c3.08,2.4,6.23,4.69,9.47,6.88l9.33,6.32l15.93,9.82l15.49,8.95l11.21,6.72
		c1.9,1.14,3.83,2.21,5.79,3.22l15.97,8.21c1.51,0.91,3.05,1.77,4.62,2.58l21.76,11.34l18.11,7.64l10.89,3.77
		c4.08,1.41,8.23,2.6,12.44,3.56l13.76,3.14l4.02,0.21c8.2,0.44,16.42-0.18,24.46-1.85l0,0l0,0c2.51-1.09,7.37-3.54,11.05-5.42
		c3.09-1.58,6.08-3.33,8.98-5.25l9.46-6.26l10.42-7.24l4.53-3.75c1.94-1.61,3.94-3.14,5.99-4.6l5.21-3.7l12.22-9.16l9.6-7.42l0,0
		c4.79-3.63,9.3-7.62,13.49-11.94l0.48-0.49l7.64-6.76l2.81-2.81c1.51-1.51,2.16-3.68,1.74-5.78l-6.51-31.77L1088.36,1594.54z"/>
	<path class="st7" d="M1087.63,1522.91l-0.52,30.1l0.52,24.39l1.04,17.64l0.44,9.6c0.05,1.17,0.52,2.29,1.31,3.15l2.75,3.01
		c4.78,5.22,9.92,10.11,15.38,14.61l8.15,6.72l8.44,6.45c3.88,2.96,7.96,5.66,12.2,8.08l12.31,7.01l35.03,19.46l17.64,10.38
		l21.8,10.38l18.42,8.3l19.98,8.56l19.2,6.75l17.12,4.13c4.43,1.01,5.94,1.01,8.95,0.9l0,0c15.05-0.55,27.79-6.07,42.58-12.68h0.25
		l18.13-10.03c2.11-1.17,4.14-2.47,6.07-3.9l15.9-11.79l15.07-11.45l3.57-3c7.21-6.05,12.98-13.65,16.88-22.22v0l-11.16-66.95
		L1087.63,1522.91z"/>
	<path class="st0" d="M1774.19,1193.47L1774.19,1193.47c-0.66-13.48-3.37-26.78-8.04-39.43v0c-3.18-7.23-3.34-9.09-8.74-15.85
		c-1.34-1.67-6.04-7.02-7.95-7.97c-8.37-7.08-17.77-12.84-27.88-17.07v0c-8.91-3.73-18.23-6.39-27.77-7.9l-8.04-1.28
		c-7.32-1.16-14.69-1.89-22.1-2.18c-6.74-0.26-13.49,0.03-20.19,0.82l-12.27,1.44c-0.84,0.1-1.58-0.56-1.57-1.41l0.77-70.38
		l-1.4-39.43l-1.63-31.06c-0.51-9.73-1.36-19.44-2.53-29.11l-3.39-27.9l-2.58-20.75c-1.69-13.62-4.03-27.14-7.02-40.54l-6.6-29.65
		l-8.81-32.59c-2.88-10.67-6.2-21.21-9.95-31.6l-8.56-23.74c-3.94-10.93-8.33-21.7-13.13-32.28l-7.42-16.33
		c-3.46-7.61-7.74-14.82-12.76-21.51c-12.06-16.05-25.92-30.67-41.3-43.57v0c-8.49-7.12-17.83-13.18-27.79-18.04h0
		c-17.84-8.7-36.34-16-55.31-21.82h0c-11.03-3.38-22.22-6.24-33.52-8.56l-5.51-1.13c-13.94-2.86-28.05-4.85-42.25-5.94l-7.57-0.58
		c-9.38-0.72-18.78-1.13-28.18-1.23l-8.55-0.09c-16.51-0.17-33.01,0.64-49.42,2.43l-6.32,0.69c-13.11,1.43-26.14,3.54-39.04,6.33
		l-15.28,3.3c-12.6,2.72-25.03,6.22-37.2,10.47l-13.27,4.63c-15.97,5.57-31.51,12.28-46.52,20.07l-9.08,4.71
		c-9.5,4.93-18.76,10.32-27.74,16.14l-9.93,6.44c-14.65,9.5-28.49,20.2-41.37,31.98l-2.37,2.17c-8.88,8.12-17.2,16.84-24.89,26.1
		l-3.73,4.49c-8.89,10.71-16.99,22.06-24.22,33.96l0,0c-5.9,9.7-11.11,19.8-15.59,30.23l-4.6,10.7c-3.46,8.04-6.38,16.31-8.75,24.74
		l-3.39,12.08c-3.24,11.55-5.45,23.38-6.59,35.32l-3.83,40.04l-1.15,48.96c-0.22,9.22-0.14,18.45,0.24,27.66l2.02,48.97l4.81,79.76
		c-0.42,1.25-1.73,1.94-2.99,1.6c-9.06-2.39-18.25-4.26-27.57-5.16l-1.36-0.13c-9.64,0-19.21,1.63-28.31,4.82l-3.66,1.28l-0.88,0.52
		c-9.88,5.85-19.07,12.79-27.4,20.69l-5.75,7.41c-3.55,4.58-6.62,9.51-9.16,14.72l-0.2,0.41c-1.6,3.28-2.92,6.7-3.94,10.21
		l-1.88,6.47c-0.83,2.87-1.44,5.81-1.83,8.78l-1.27,9.84c-0.48,3.74-0.66,7.51-0.54,11.28l0.3,9.24c0.11,3.35,0.42,6.68,0.93,9.99
		l2.44,15.76l3.51,18.22c0.45,2.31,0.99,4.61,1.64,6.87l5.78,20.22l7.92,23.75c0.51,1.52,1.06,3.02,1.66,4.51l6.52,16.13
		c1.59,3.93,3.42,7.76,5.48,11.46l8.63,15.49l7.89,12.36c2.97,4.65,6.39,9,10.22,12.97l5.7,5.93c2.65,2.76,5.51,5.32,8.53,7.67
		l4.19,3.25c4.06,3.15,8.44,5.87,13.06,8.11l4.45,2.16c3.2,1.56,6.5,2.89,9.88,4l11.58,3.79l7.47,1.54
		c4.21,0.87,8.46,1.49,12.74,1.87l7.5,0.66l7.42-0.11c8.54-0.13,17.07-0.81,25.52-2.03h0c2.9-0.42,5.72-1.27,8.37-2.52l2.21-0.55
		c1.03-0.26,2.08,0.29,2.47,1.27l10.83,27.55c2.15,5.47,4.67,10.78,7.59,15.87c3.86,6.71,8.06,13.21,12.58,19.49l11.38,15.8
		c3.47,4.82,7.13,9.51,10.95,14.06l15.21,18.09l4.07,4.17c12.58,12.86,26.32,24.53,41.04,34.86l0,0c3.65,2.56,7.38,5.02,11.18,7.37
		l13.73,8.48l31.23,17.59c19.78,10.82,40.82,19.18,62.63,24.89l2.9,0.76c13.98,3.38,28.14,5.98,42.4,7.79l13.7,1.74
		c17.5,2.3,35.25,1.81,52.6-1.44l6.02-1.13l26.5-4.94l24.42-5.46l3.92-0.75c16.36-3.12,32.24-8.42,47.2-15.75l0,0
		c10.76-5.27,21.11-11.34,30.96-18.15l3.53-2.44c13.56-9.37,26.32-19.85,38.15-31.32l7.68-7.44l9.81-10.63
		c8.08-8.75,15.59-18,22.49-27.7l11.91-16.74l21.47-34.69l13.3-23.73c1.21-2.16,3.36-3.61,5.8-3.98c18.1-2.75,35.83-7.55,52.84-14.3
		h0c11.8-4.68,23-10.74,33.37-18.04l4.98-3.51l11.54-10.52c8.72-7.95,16.63-16.74,23.63-26.24l0.29-0.39
		c5.53-7.52,10.48-15.45,14.81-23.72l6.12-11.7c3.71-7.09,6.98-14.4,9.8-21.88l3.83-10.16c3.35-8.9,5.86-18.09,7.5-27.46l1.36-7.78
		C1774.03,1216.91,1774.76,1205.18,1774.19,1193.47z"/>
	<path class="st8" d="M933.35,1206.01c-7.83-11.63-18.65-20.97-30.51-28.34c-12.98-8.07-27.91-13.06-43.21-9.86
		c-6.23,1.3-3.58,10.76,2.63,9.52c21.04-4.21,42.94,11.87,56.2,26.73c8.53,9.56,15.09,22.05,17.76,35.05
		c-14.58-4.73-32.09-0.87-44.07,8.16c-7.02,5.29-12.57,12.68-14.16,21.48c-1.8,9.96,0.49,20.9,9.5,26.62
		c8.88,5.64,21.36,5.16,30.97,1.87c11.03-3.78,19.9-11.97,24.69-22.59C953.15,1252.43,946.48,1225.5,933.35,1206.01z
		 M937.19,1257.81c-2.09,18.39-16.36,33.63-35.78,31.87c-8.97-0.82-14.2-6.26-14.17-15.31c0.02-6.9,3.25-12.99,8.29-17.59
		c10.7-9.76,28.02-12.76,41.88-8.85C937.62,1251.24,937.56,1254.55,937.19,1257.81z"/>
	<path class="st8" d="M1723.42,1183.7c-25.22,10.58-48.67,25.43-65.47,47.39c-10.71,14.01-19.78,32.01-20.49,49.94
		c-0.3,7.63,1.59,15.67,7.25,21.12c6.69,6.44,17.18,7.97,26.05,6.77c17.3-2.34,44.25-19.04,35.18-39.84
		c-10.19-23.38-39.19-15.5-54.56-1.33c3.78-11.74,10.74-23.77,15.27-29.76c15.1-19.97,36.9-33.93,59.75-43.51
		C1732.93,1191.74,1730.06,1180.92,1723.42,1183.7z M1654.42,1278.94c9.08-8.33,32.25-22.97,40.9-6.31
		c7.13,13.72-17.8,25.02-28.09,25.46c-15.05,0.64-19.31-7.63-18.42-18.41C1650.6,1280.47,1652.8,1280.43,1654.42,1278.94z"/>
	<path class="st8" d="M1367.92,977.66c0.04-0.29,0.07-0.58,0.11-0.86h-0.1c-0.3-4.19-6.89-5.66-7.63-1.05
		c-10.92,67.93-20.47,136.16-29.79,204.33c-1.3,9.55-2.76,19.08-4.27,28.6c-1.22,7.74-2.86,15.56-3.72,23.39
		c-0.22,0.04-0.45,0.08-0.68,0.15c-14.07,4.22-27.94,9.26-41.82,14.07c-5.78,2.01-3.32,11.22,2.55,9.23
		c1.33-0.45,2.67-0.9,4.01-1.35c0.47,0.1,1,0.1,1.57-0.05c9.64-2.43,19.23-5.07,28.77-7.86c0.12-0.03,0.22-0.08,0.33-0.13
		c4.14-1.19,8.26-2.49,12.4-3.59c-0.01-0.02-0.02-0.05-0.03-0.07c1.3-0.42,2.08-1.35,2.41-2.41c0.14-0.3,0.26-0.61,0.34-0.96
		c1.91-8.19,2.46-16.77,3.49-25.12c1.06-8.57,2.14-17.14,3.31-25.7c2.38-17.36,5-34.69,7.4-52.05
		c4.71-33.97,9.21-67.96,13.89-101.93c1.6-11.64,3.18-23.29,4.7-34.95c1.39-6.11,2.63-12.27,3.99-18.37
		C1369.48,979.53,1368.87,978.37,1367.92,977.66z"/>
	<ellipse class="st9" cx="1083.04" cy="1289.82" rx="57.5" ry="34"/>
	<ellipse class="st9" cx="1513.54" cy="1302.55" rx="57.5" ry="34"/>
	<path class="st8" d="M1420.64,1306.3c-9.45,15.58-18.93,30.34-32.58,42.65c-13.32,12.01-29.3,21.3-46.36,26.86
		c-35.3,11.5-73.93,5.39-105.33-13.95c-17.77-10.95-32.75-25.96-43.41-43.91c-2.9-4.88-10.59-0.41-7.62,4.45
		c20.41,33.47,55.42,57.28,94.01,64.21c38.11,6.85,77.87-3.64,108.57-27.03c16.87-12.86,32.91-29.83,40.03-50.19
		C1429.48,1305.01,1422.93,1302.52,1420.64,1306.3z"/>
	<ellipse class="st10" cx="1171.79" cy="1047.41" rx="19.5" ry="35.91"/>
	<ellipse class="st10" cx="1464.04" cy="1059.41" rx="19.5" ry="35.91"/>
	<path class="st8" d="M1321.25,1438.36c-2.23-0.83-4.59-1.47-7.02-1.91c-0.69-0.7-1.7-1.1-2.93-0.84c-0.46,0.1-0.93,0.2-1.39,0.29
		c-6.14-0.47-12.43,0.36-17.83,2.82c-0.68,0.31-1.14,0.73-1.43,1.21c-2.2,1.01-2.55,4.84-0.18,5.94c10.39,4.81,21.45,4.38,31.68-0.6
		C1325.34,1443.71,1324.02,1439.39,1321.25,1438.36z"/>
	<g>
		<g>
			<defs>
				<rect id="SVGID_1_" x="1093.47" y="886.72" width="127.03" height="58.55"/>
			</defs>
			<clipPath id="SVGID_2_">
				<use xlink:href="#SVGID_1_"  style="overflow:visible;"/>
			</clipPath>
			<path class="st11" d="M1218.71,895.58C1218.71,895.58,1218.71,895.58,1218.71,895.58c-0.01-0.01-0.01-0.02-0.02-0.02
				c0-0.01-0.01-0.01-0.01-0.02c0,0,0,0,0,0c-0.01-0.02-0.07-0.09-0.08-0.1c-0.01-0.01,0.03,0.03,0.02,0.01c0,0,0,0,0,0.01
				c0,0,0,0,0-0.01c-0.08-0.1-0.16-0.19-0.23-0.29c-0.08-0.11-0.15-0.21-0.23-0.32c-0.03-0.02-0.04-0.06-0.07-0.09
				c0,0-0.01-0.01-0.01-0.01c-0.02-0.01-0.04-0.02-0.05-0.03c-0.03-0.03-0.04-0.07-0.06-0.11c-0.01,0-0.01,0-0.02,0
				c-0.36-0.45-0.75-0.96-0.88-0.99l0,0c-0.83-0.64-3.78-2.01-5.06-2.16c-7.93-4.39-17.1-4.86-26.05-4.69
				c-9.85,0.19-19.71,1.47-29.27,3.87c-18.94,4.75-36.42,13.71-51.75,25.74c-6.4,5.03-14.87,13.04-10.07,21.98
				c3.97,7.38,13.52,7.67,20.73,6.27c9.63-1.87,18.64-6.21,27.47-10.33c9.74-4.55,19.29-8.33,29.94-10.11
				c11.63-1.95,24.06-2.16,35.13-6.53C1216.9,914.18,1223.92,902.7,1218.71,895.58z"/>
			<path class="st11" d="M1211.73,891.43c-0.01,0-0.03,0-0.04,0C1211.66,891.4,1211.68,891.41,1211.73,891.43z"/>
		</g>
		<g>
			<defs>
				
					<rect id="SVGID_3_" x="1458.22" y="867.38" transform="matrix(0.09 -0.9959 0.9959 0.09 426.5022 2328.574)" width="58.55" height="127.03"/>
			</defs>
			<clipPath id="SVGID_4_">
				<use xlink:href="#SVGID_3_"  style="overflow:visible;"/>
			</clipPath>
			<path class="st12" d="M1427.85,905.01C1427.86,905.01,1427.86,905.01,1427.85,905.01c0.01-0.01,0.01-0.02,0.02-0.02
				c0-0.01,0.01-0.01,0.01-0.02c0,0,0,0,0,0c0.01-0.02,0.08-0.08,0.08-0.1c0.01-0.01-0.03,0.02-0.02,0.01c0,0,0,0,0,0.01
				c0,0,0,0,0-0.01c0.09-0.09,0.18-0.18,0.26-0.27c0.09-0.1,0.17-0.2,0.26-0.29c0.03-0.02,0.05-0.06,0.07-0.08
				c0,0,0.01-0.01,0.01-0.01c0.02-0.01,0.04-0.01,0.05-0.03c0.03-0.03,0.04-0.07,0.07-0.11c0.01,0,0.01,0,0.02,0
				c0.39-0.42,0.83-0.88,0.96-0.91l0,0c0.88-0.57,3.94-1.67,5.23-1.7c8.3-3.66,17.47-3.3,26.37-2.33c9.79,1.07,19.5,3.24,28.8,6.49
				c18.43,6.43,35.04,16.94,49.22,30.3c5.93,5.58,13.64,14.33,8.05,22.8c-4.61,7-14.16,6.42-21.21,4.38
				c-9.42-2.73-18.01-7.86-26.42-12.76c-9.29-5.41-18.46-10.03-28.91-12.77c-11.4-2.98-23.76-4.32-34.4-9.67
				C1427.98,923.7,1422.03,911.63,1427.85,905.01z"/>
			<path class="st12" d="M1435.18,901.5c0.01,0,0.03,0,0.04,0C1435.25,901.49,1435.23,901.49,1435.18,901.5z"/>
		</g>
	</g>
	<ellipse class="st13" cx="1140.54" cy="1103.91" rx="151.51" ry="151.9"/>
	<ellipse class="st13" cx="1513.54" cy="1124.81" rx="151.51" ry="151.9"/>
	<path class="st14" d="M1371.31,1158.87c-3.13-23.76-32.78-31.39-53.01-29.82c-21.3,1.65-39.17,14.61-46.61,34.71
		c-2.42,6.54,7.81,9.13,10.34,2.85c5.79-14.32,21.44-22.71,36.27-23.84c8.52-0.65,17.23,0.94,25.1,4.25
		c7.66,3.22,11.16,8.36,15.19,15.28C1361.74,1167.72,1372.23,1165.89,1371.31,1158.87z"/>
	<path class="st3" d="M1443.69,1606.21"/>
</g>
<g id="Layer_8">
	<g>
		<path class="st5" d="M906.67,1093.12l2.48,7.76c1.3,4.63,4.53,15.71,7.07,20.07l1.05,1.8c5.32,9.14,15.31,14.54,25.87,13.99h1h-1
			c9.9-2.77,15.3-13.31,18.21-23.03l0.66-2.2c0.62-2.09,0.99-4.24,1.08-6.42l1.88-43.5c0.06-1.33,0.15-2.65,0.28-3.98l5.9-59.97
			l5.59-62.97l6.6-52.81l7.11-54.84l6.97-40.92c0.31-1.83,2.35-2.8,3.97-1.89l22.17,12.55c10.5,5.94,22.07,9.77,34.04,11.27
			l45.83,5.73c8.99,1.12,18.68,1.25,27.99,0.27l45.59-2.32l58.46-5.94l66.48-8.6l53.05-8.49c2.84-0.45,5.66-1.06,8.44-1.8
			l84.62-20.69c4.6-1.13,9.11-2.63,13.46-4.51l18.34-7.9c5.56-2.4,19.83-7.92,24.71-11.51l17.41-8.75c0.95-0.7,3.5-2.15,4.42-2.51
			l4.81-2.68c0.96-0.33,7.14-7.28,11.56-0.38c4.21,6.57,17.27,25.48,17.27,25.48c4.22,6.13,11.97,18.16,16.1,23.67
			c4.45,5.93,8.83,14.11,12.87,21.05l5.73,11.92c0.7,1.81,3.17,7.01,3.87,8.82c2.49,6.48,8.94,23.43,12.36,32.33
			c2.57,6.69,7.13,17.14,7.97,10.4c0.74-5.93-5.18-34.09-5.18-34.09l-6.88-37.83l-13.18-40.69l-12.61-36.11l-16.05-42.41
			l-13.76-32.67l-26.36-25.22l-42.98-36.11l-26.94-13.76l-59.03-9.74l-62.47-12.61l-79.09,4.59l-70.5,1.72l-76.8,29.23l-78.52,41.27
			l-63.62,53.87l-53.3,84.82l-17.19,70.5l-5.73,63.62l1.72,62.47l1.72,63.04l11.43,65.83
			C904.3,1085.37,905.33,1089.3,906.67,1093.12z"/>
		<path class="st5" d="M1528.9,723.52"/>
		<path class="st5" d="M1614.41,875.09"/>
		<path class="st5" d="M912.68,1112.36l6.09,20.14l3.66,9.76l3.3,8.62c2.78,7.26,8.04,13.37,14.95,16.93
			c2.17,1.11,3.77,1.75,5.66,1.98c1.27,0.15,2.98,0.2,3.94-0.23l0,0v-0.05c5.3-2.36,8.43-7.42,10.57-12.62l0,0
			c0.8-1.93,1.46-6.68,1.58-8.77l0.56-10.75c0.07-1.17,0.08-2.35,0.04-3.52l0.04-10.94l-0.12-5.9c-0.02-1.01,0.18-13.18,0.18-13.18"
			/>
		<path class="st5" d="M911.95,1084.27"/>
	</g>
</g>
</svg>
