<svg xmlns="http://www.w3.org/2000/svg" width="308.955" height="82.194" viewBox="0 0 308.955 82.194">
  <g id="Group_6" data-name="Group 6" transform="translate(-1062.408 -451.718)">
    <g id="fog" transform="translate(1279 520.5)" opacity="0.199" style="isolation: isolate">
      <g id="Group_4" data-name="Group 4">
        <path id="Path_48" data-name="Path 48" d="M300.308,186.96a11.778,11.778,0,0,0-8.359-3.46H265.283a11.817,11.817,0,0,1-11.813-11.817,11.818,11.818,0,0,0-11.82-11.82H31.949a11.818,11.818,0,0,0,0,23.637h62.73a11.815,11.815,0,1,1,0,23.63H11.821a11.818,11.818,0,1,0,0,23.637H200.133a11.818,11.818,0,0,0,11.82-11.817,11.818,11.818,0,0,1,11.817-11.82h68.178a11.816,11.816,0,0,0,8.359-20.17ZM177.034,206.229h-31.9a11.818,11.818,0,0,1,0-23.637h31.906a11.818,11.818,0,0,1,0,23.637Zm0,0" transform="matrix(-1, -0.017, 0.017, -1, 88.34, 173.251)"/>
      </g>
    </g>
    <g id="fog-2" data-name="fog" transform="translate(1275 514.5)" style="isolation: isolate">
      <g id="Group_4-2" data-name="Group 4">
        <path id="Path_48-2" data-name="Path 48" d="M300.308,186.96a11.778,11.778,0,0,0-8.359-3.46H265.283a11.817,11.817,0,0,1-11.813-11.817,11.818,11.818,0,0,0-11.82-11.82H31.949a11.818,11.818,0,0,0,0,23.637h62.73a11.815,11.815,0,1,1,0,23.63H11.821a11.818,11.818,0,1,0,0,23.637H200.133a11.818,11.818,0,0,0,11.82-11.817,11.818,11.818,0,0,1,11.817-11.82h68.178a11.816,11.816,0,0,0,8.359-20.17ZM177.034,206.229h-31.9a11.818,11.818,0,0,1,0-23.637h31.906a11.818,11.818,0,0,1,0,23.637Zm0,0" transform="matrix(-1, -0.017, 0.017, -1, 88.34, 173.251)" fill="#585858"/>
      </g>
    </g>
  </g>
</svg>
