<svg xmlns="http://www.w3.org/2000/svg" width="330.21" height="181.045" viewBox="0 0 330.21 181.045">
  <g id="Group_7" data-name="Group 7" transform="translate(-315.314 -493.641)">
    <g id="fog" transform="translate(1273 394.5)" opacity="0.2">
      <g id="Group_5" data-name="Group 5" transform="translate(-957.69 103.641)">
        <path id="Path_52" data-name="Path 52" d="M319.532,159.315a12.532,12.532,0,0,0-8.895-3.682H282.264A12.573,12.573,0,0,1,269.7,143.06a12.574,12.574,0,0,0-12.576-12.576h-74.73a12.575,12.575,0,1,1,0-25.15H284.972a12.575,12.575,0,1,0,0-25.15H64.458a12.575,12.575,0,1,0,0,25.15H78.245a12.575,12.575,0,1,1,0,25.15H33.994a12.575,12.575,0,0,0,0,25.15H100.74a12.571,12.571,0,1,1,0,25.143H12.578a12.575,12.575,0,1,0,0,25.15H212.945a12.575,12.575,0,0,0,12.576-12.574,12.574,12.574,0,0,1,12.574-12.576h72.543a12.572,12.572,0,0,0,8.895-21.461Zm-131.165,20.5H154.421a12.575,12.575,0,0,1,0-25.15h33.948a12.575,12.575,0,1,1,0,25.15Zm0,0" transform="translate(0 -29.381)"/>
        <path id="Path_53" data-name="Path 53" d="M133.148.5H28.354a12.576,12.576,0,1,0,0,25.153H133.148a12.576,12.576,0,0,0,0-25.153Zm0,0" transform="translate(-5.816 0)"/>
        <path id="Path_54" data-name="Path 54" d="M335.06.5H270.152a12.576,12.576,0,0,0,0,25.153H335.06A12.576,12.576,0,0,0,335.06.5Zm0,0" transform="translate(-94.973 0)"/>
      </g>
    </g>
    <g id="fog-2" data-name="fog" transform="translate(1280 389.5)">
      <g id="Group_5-2" data-name="Group 5" transform="translate(-957.69 103.641)">
        <path id="Path_52-2" data-name="Path 52" d="M319.532,159.315a12.532,12.532,0,0,0-8.895-3.682H282.264A12.573,12.573,0,0,1,269.7,143.06a12.574,12.574,0,0,0-12.576-12.576h-74.73a12.575,12.575,0,1,1,0-25.15H284.972a12.575,12.575,0,1,0,0-25.15H64.458a12.575,12.575,0,1,0,0,25.15H78.245a12.575,12.575,0,1,1,0,25.15H33.994a12.575,12.575,0,0,0,0,25.15H100.74a12.571,12.571,0,1,1,0,25.143H12.578a12.575,12.575,0,1,0,0,25.15H212.945a12.575,12.575,0,0,0,12.576-12.574,12.574,12.574,0,0,1,12.574-12.576h72.543a12.572,12.572,0,0,0,8.895-21.461Zm-131.165,20.5H154.421a12.575,12.575,0,0,1,0-25.15h33.948a12.575,12.575,0,1,1,0,25.15Zm0,0" transform="translate(0 -29.381)" fill="#585858"/>
        <path id="Path_53-2" data-name="Path 53" d="M133.148.5H28.354a12.576,12.576,0,1,0,0,25.153H133.148a12.576,12.576,0,0,0,0-25.153Zm0,0" transform="translate(-5.816 0)" fill="#585858"/>
        <path id="Path_54-2" data-name="Path 54" d="M335.06.5H270.152a12.576,12.576,0,0,0,0,25.153H335.06A12.576,12.576,0,0,0,335.06.5Zm0,0" transform="translate(-94.973 0)" fill="#585858"/>
      </g>
    </g>
  </g>
</svg>
