<svg xmlns="http://www.w3.org/2000/svg" viewBox="0 0 354.48 328.14"><defs><style>.cls-1{fill:#407bff;}.cls-10,.cls-16,.cls-17,.cls-18,.cls-2,.cls-21,.cls-4,.cls-5,.cls-6{fill:#fff;}.cls-2{opacity:0.9;}.cls-14,.cls-15,.cls-16,.cls-17,.cls-18,.cls-2,.cls-21,.cls-4,.cls-5,.cls-6,.cls-8,.cls-9{isolation:isolate;}.cls-3{fill:#263238;}.cls-15,.cls-4,.cls-8{opacity:0.2;}.cls-5{opacity:0.3;}.cls-6{opacity:0.6;}.cls-7{fill:#e4897b;}.cls-21,.cls-9{opacity:0.1;}.cls-11{fill:#de5753;}.cls-12,.cls-13,.cls-19,.cls-20{fill:none;stroke-linecap:round;stroke-linejoin:round;}.cls-12,.cls-13{stroke:#263238;}.cls-12{stroke-width:0.72px;}.cls-13{stroke-width:0.5px;}.cls-14,.cls-17{opacity:0.4;}.cls-16{opacity:0.7;}.cls-18{opacity:0.5;}.cls-19,.cls-20{stroke:#407bff;stroke-width:0.75px;}.cls-20{stroke-dasharray:6.03 6.03;}</style></defs><title>Contact 2</title><g id="Backgorund_Simple" data-name="Backgorund Simple"><path class="cls-1" d="M308.64,92.57a63.32,63.32,0,0,1,24.68-3.52c41.56,2.63,67.72,39.05,75.36,77.14,11.1,55.24-17,111.76-56.49,149.1-1.28,1.22-2.58,2.41-3.9,3.59-41.08,36.55-96.07,55.26-150.61,56.82-34.3,1-75-10.61-97.63-37.83-23.67-28.45-18.42-92.74,26.65-95.74,18.36-1.23,35.48,5.44,53.16,9.1,24.51,5.08,51.19.16,71.3-15.09,40-30.29,4-85.66,28.47-122C286.4,104.06,297,96.66,308.64,92.57Z" transform="translate(-56.65 -88.93)"/><path class="cls-2" d="M308.64,92.57a63.32,63.32,0,0,1,24.68-3.52c41.56,2.63,67.72,39.05,75.36,77.14,11.1,55.24-17,111.76-56.49,149.1-1.28,1.22-2.58,2.41-3.9,3.59-41.08,36.55-96.07,55.26-150.61,56.82-34.3,1-75-10.61-97.63-37.83-23.67-28.45-18.42-92.74,26.65-95.74,18.36-1.23,35.48,5.44,53.16,9.1,24.51,5.08,51.19.16,71.3-15.09,40-30.29,4-85.66,28.47-122C286.4,104.06,297,96.66,308.64,92.57Z" transform="translate(-56.65 -88.93)"/></g><g id="Chair"><path class="cls-3" d="M363.12,394.33l-28.81-2.83V351H322.89v40.48L294,394.33a5.61,5.61,0,0,0-5.06,5.58v4.33h79.28v-4.33A5.6,5.6,0,0,0,363.12,394.33Z" transform="translate(-56.65 -88.93)"/><path class="cls-4" d="M363.12,394.33l-28.81-2.83V351H322.89v40.48L294,394.33a5.61,5.61,0,0,0-5.06,5.58v4.33h79.28v-4.33A5.6,5.6,0,0,0,363.12,394.33Z" transform="translate(-56.65 -88.93)"/><circle class="cls-3" cx="235.3" cy="320.67" r="7.47"/><circle class="cls-3" cx="308.49" cy="320.67" r="7.47"/><path class="cls-3" d="M264.28,234.71h15.35a0,0,0,0,1,0,0v31.93a4.13,4.13,0,0,1-4.13,4.13h-7.09a4.13,4.13,0,0,1-4.13-4.13V234.71A0,0,0,0,1,264.28,234.71Z"/><path class="cls-5" d="M264.28,234.71h15.35a0,0,0,0,1,0,0v31.93a4.13,4.13,0,0,1-4.13,4.13h-7.09a4.13,4.13,0,0,1-4.13-4.13V234.71A0,0,0,0,1,264.28,234.71Z"/><path class="cls-3" d="M355.9,260.35s2.18,54-12.86,63.29h17.17s13.3-18.39,9.54-63.29Z" transform="translate(-56.65 -88.93)"/><path class="cls-5" d="M355.9,260.35s2.18,54-12.86,63.29h17.17s13.3-18.39,9.54-63.29Z" transform="translate(-56.65 -88.93)"/><path class="cls-3" d="M289.13,316.09h76.92a0,0,0,0,1,0,0v6.69a5,5,0,0,1-5,5H294.13a5,5,0,0,1-5-5v-6.69A0,0,0,0,1,289.13,316.09Z" transform="translate(598.54 554.94) rotate(180)"/><rect class="cls-3" x="285.93" y="321.94" width="83.33" height="5.84" rx="2.01" transform="translate(598.54 560.78) rotate(180)"/><rect class="cls-6" x="285.93" y="321.94" width="83.33" height="5.84" rx="2.01" transform="translate(598.54 560.78) rotate(180)"/><rect class="cls-3" x="275.23" y="142.47" width="56.66" height="39.92" rx="14.58"/></g><g id="Character"><path class="cls-7" d="M263.05,187.28l-5.49-14.47s2.36-2.18.74-4.39-11.74-8.42-13.58-7.33-5.95,5.21-3.73,7.5,12,6.1,12,6.1l4.86,19Z" transform="translate(-56.65 -88.93)"/><path class="cls-1" d="M301.38,214.79s-25-5.13-27.67-6.36S261,177.77,261,177.77l-7.71,3.6s6.2,29.54,12.54,36.56,33.4,13,33.4,13Z" transform="translate(-56.65 -88.93)"/><path class="cls-8" d="M299.17,230.9l-.46-.11c-1.36-.31-5.63-1.31-10.7-2.8-8.23-2.39-18.61-6-22.23-10.05-6.33-7-12.54-36.57-12.54-36.57l7.7-3.6s10.05,29.44,12.77,30.66,27.67,6.36,27.67,6.36Z" transform="translate(-56.65 -88.93)"/><polygon class="cls-1" points="204.42 88.26 206.01 91.33 196.11 94.74 196.49 90.98 204.42 88.26"/><path class="cls-8" d="M299.36,230.49c-1.38-.2-5.71-.87-10.89-2,2.95-5.1,11.59-7.72,11.59-7.72Z" transform="translate(-56.65 -88.93)"/><path class="cls-3" d="M336.58,194.41s1.47,13.83-3.65,17.23-30.33-.58-33.19-6.15,7.9-20.67,7.9-20.67Z" transform="translate(-56.65 -88.93)"/><polygon class="cls-7" points="177.95 287.46 184.52 289.05 187.85 279.97 190.87 271.71 183.38 268.52 180.5 278.54 177.95 287.46"/><polygon class="cls-8" points="180.5 278.54 187.85 279.97 190.87 271.71 183.38 268.52 180.5 278.54"/><path class="cls-1" d="M237.81,362.68l9.12,3.39s24.33-60.83,29.33-61,55.91,23.19,68.67,10.21S339.24,271,339.24,271s-30.69-4.38-33,2.55a48.61,48.61,0,0,0-1.3,6.22c-.35,2.12-.59,3.9-.59,3.9h0c-.95-.24-31.76-8.19-43.9,0C248.1,292,237.81,362.68,237.81,362.68Z" transform="translate(-56.65 -88.93)"/><path class="cls-6" d="M237.81,362.68l9.12,3.39s24.33-60.83,29.33-61,55.91,23.19,68.67,10.21S339.24,271,339.24,271s-30.69-4.38-33,2.55a48.61,48.61,0,0,0-1.3,6.22c-.35,2.12-.59,3.9-.59,3.9h0c-.95-.24-31.76-8.19-43.9,0C248.1,292,237.81,362.68,237.81,362.68Z" transform="translate(-56.65 -88.93)"/><polygon class="cls-7" points="233.62 313.41 240.17 311.73 238.91 302.33 237.74 293.71 229.64 294.44 231.74 304.48 233.62 313.41"/><polygon class="cls-8" points="231.79 304.69 238.96 302.51 237.76 293.8 229.65 294.48 231.79 304.69"/><polygon class="cls-1" points="194.05 273.76 180.77 269.25 180.2 274.69 190.27 278.25 194.05 273.76"/><path class="cls-1" d="M322.89,318.36s-2.08.05-34.27-1.45c0,0,4.81,40.24,7.44,70.37l-9.63,1.64s-23-64.51-22.75-74.76,12-13.25,12-13.25S298.61,314.16,322.89,318.36Z" transform="translate(-56.65 -88.93)"/><path class="cls-6" d="M322.89,318.36s-2.08.05-34.27-1.45c0,0,4.81,40.24,7.44,70.37l-9.63,1.64s-23-64.51-22.75-74.76,12-13.25,12-13.25S298.61,314.16,322.89,318.36Z" transform="translate(-56.65 -88.93)"/><path class="cls-9" d="M322.89,318.36s-2.08.05-34.27-1.45c0,0,4.81,40.24,7.44,70.37l-9.63,1.64s-23-64.51-22.75-74.76,12-13.25,12-13.25S298.61,314.16,322.89,318.36Z" transform="translate(-56.65 -88.93)"/><polygon class="cls-1" points="240.82 295.43 227.59 296.93 230.14 302.12 240.85 300.75 240.82 295.43"/><path class="cls-9" d="M304.35,283.67l17.95,3.74s-9.92-5.48-17.36-7.64C304.59,281.89,304.35,283.67,304.35,283.67Z" transform="translate(-56.65 -88.93)"/><polygon class="cls-3" points="281.85 177.29 282.59 182.07 249.59 184.61 248.72 178.97 281.85 177.29"/><polygon class="cls-8" points="281.85 177.29 282.59 182.07 249.59 184.61 248.72 178.97 281.85 177.29"/><rect class="cls-1" x="327.66" y="265.81" width="1.64" height="8.35" transform="translate(626.21 416.02) rotate(174.13)"/><rect class="cls-10" x="313.25" y="267.66" width="7.24" height="5.49" transform="translate(593.79 431) rotate(176.32)"/><rect class="cls-1" x="307.4" y="266.7" width="1.64" height="8.35" transform="translate(585.9 419.85) rotate(174.13)"/><rect class="cls-6" x="327.66" y="265.81" width="1.64" height="8.35" transform="translate(626.21 416.02) rotate(174.13)"/><rect class="cls-6" x="307.4" y="266.7" width="1.64" height="8.35" transform="translate(585.9 419.85) rotate(174.13)"/><path class="cls-1" d="M300.78,214.34a60,60,0,0,0,19,2.09C330.38,215.89,343,221,343,221l-4.54,45.2-33.14,1.67S294.23,230.16,300.78,214.34Z" transform="translate(-56.65 -88.93)"/><path class="cls-3" d="M306.11,188.81s1.86-21.94,20.2-14c23,10,4.72,36.74-6.53,31.26S306.11,188.81,306.11,188.81Z" transform="translate(-56.65 -88.93)"/><path class="cls-8" d="M311.25,217.66l.53,12.4,4.11-5.83s-1.47,13.71-.61,21.18c0,0,.79-13.39,2.65-21.18l4.37,5.83,6.27-12.32S318.42,214.09,311.25,217.66Z" transform="translate(-56.65 -88.93)"/><path class="cls-7" d="M316.93,220l9.49-2.68c-5.85-4-2.9-13-2.9-13l-9.4,3.3a27.67,27.67,0,0,1,1,4c1,5.86-1.66,6.33-1.66,6.33Z" transform="translate(-56.65 -88.93)"/><path class="cls-8" d="M314.12,207.57a27.67,27.67,0,0,1,1,4c4.5-1.81,8.39-7.32,8.39-7.32Z" transform="translate(-56.65 -88.93)"/><path class="cls-7" d="M320.26,179.45c-8.33-1.84-12,2-14.5,10.46-3.13,10.55-2.44,18.69,8.47,18.71C329.05,208.64,334.08,182.51,320.26,179.45Z" transform="translate(-56.65 -88.93)"/><path class="cls-11" d="M311.24,190.64a17.72,17.72,0,0,1-3.18,2.91,2.34,2.34,0,0,0,2,1.43Z" transform="translate(-56.65 -88.93)"/><path class="cls-3" d="M316.49,191.08c-.17.68.06,1.33.52,1.44s.95-.35,1.12-1-.06-1.32-.52-1.44S316.66,190.4,316.49,191.08Z" transform="translate(-56.65 -88.93)"/><path class="cls-3" d="M317.79,190.13l-1.33-.94S316.89,190.62,317.79,190.13Z" transform="translate(-56.65 -88.93)"/><path class="cls-3" d="M308.07,188.86c-.17.68.06,1.33.52,1.44s1-.35,1.12-1-.06-1.32-.52-1.44S308.24,188.18,308.07,188.86Z" transform="translate(-56.65 -88.93)"/><path class="cls-3" d="M309.37,187.91,308,187S308.47,188.39,309.37,187.91Z" transform="translate(-56.65 -88.93)"/><path class="cls-12" d="M317.84,185.36a4.45,4.45,0,0,1,3.34,2" transform="translate(-56.65 -88.93)"/><path class="cls-12" d="M311.87,183.67a4,4,0,0,0-3.47,0" transform="translate(-56.65 -88.93)"/><path class="cls-3" d="M326.25,195.49s-2.38-7.7-.62-12.85c0,0-15-10.39-19.52,6.17,0,0,1.67-15.22,16.06-12.38s9.68,23.75.91,28.35C323.08,204.78,327.71,200.3,326.25,195.49Z" transform="translate(-56.65 -88.93)"/><path class="cls-7" d="M324.5,197a3.74,3.74,0,0,1,4.67-2.47c2.52.85,2.57,6.42-4.12,6.27C324.08,200.73,323.76,199.72,324.5,197Z" transform="translate(-56.65 -88.93)"/><path class="cls-3" d="M308.55,198.14a21.29,21.29,0,0,1,.44,3.1l.54,0c2.49.21,3.71-.52,4.31-1.38a3.17,3.17,0,0,0,.52-1.43,3,3,0,0,0,0-.87,11.84,11.84,0,0,1-5,.59C308.88,198.18,308.55,198.14,308.55,198.14Z" transform="translate(-56.65 -88.93)"/><path class="cls-10" d="M309.4,198.2l.15.91c2.34.19,4,0,4.81-.63a3,3,0,0,0,0-.87A11.84,11.84,0,0,1,309.4,198.2Z" transform="translate(-56.65 -88.93)"/><path class="cls-11" d="M309.53,201.29c2.49.21,3.71-.52,4.31-1.38a8.07,8.07,0,0,0-2.8.31A3,3,0,0,0,309.53,201.29Z" transform="translate(-56.65 -88.93)"/><path class="cls-3" d="M320.29,180.12s.32,14.43,9,16.17-.8-18.56-.8-18.56-12.9-8.42-21.5-2.48-.86,13.56-.86,13.56S307.92,178.09,320.29,180.12Z" transform="translate(-56.65 -88.93)"/><path class="cls-13" d="M320.59,179.16s-3.09,9.13,3,13.92" transform="translate(-56.65 -88.93)"/><path class="cls-1" d="M331.8,199.25c-1.1,2.94-3.93,4.59-6.32,3.7s-3.43-4-2.33-6.94,3.93-4.59,6.32-3.69S332.9,196.32,331.8,199.25Z" transform="translate(-56.65 -88.93)"/><path class="cls-14" d="M331.8,199.25c-1.1,2.94-3.93,4.59-6.32,3.7s-3.43-4-2.33-6.94,3.93-4.59,6.32-3.69S332.9,196.32,331.8,199.25Z" transform="translate(-56.65 -88.93)"/><path class="cls-1" d="M329,194.44s3.59-16.07-4.46-20.28a22.24,22.24,0,0,1,2.72.53c1,.3,7.47,6.82,4.22,21.26Z" transform="translate(-56.65 -88.93)"/><path class="cls-8" d="M329,194.44s3.59-16.07-4.46-20.28a22.24,22.24,0,0,1,2.72.53c1,.3,7.47,6.82,4.22,21.26Z" transform="translate(-56.65 -88.93)"/><path class="cls-1" d="M314,203.64l-.6-.09.16-1a18.34,18.34,0,0,0,12.69-2.69l.59.8A18.85,18.85,0,0,1,314,203.64Z" transform="translate(-56.65 -88.93)"/><g class="cls-15"><path d="M314,203.64l-.6-.09.16-1a18.34,18.34,0,0,0,12.69-2.69l.59.8A18.85,18.85,0,0,1,314,203.64Z" transform="translate(-56.65 -88.93)"/></g><path class="cls-1" d="M331.46,198.85c-.72,1.94-2.6,3-4.17,2.44s-2.27-2.64-1.54-4.58,2.6-3,4.17-2.44S332.19,196.91,331.46,198.85Z" transform="translate(-56.65 -88.93)"/><path class="cls-1" d="M313.06,204l-.81-.11a1.08,1.08,0,0,1-.93-1.22h0a1.08,1.08,0,0,1,1.22-.94l.8.11a1.1,1.1,0,0,1,.94,1.22h0A1.1,1.1,0,0,1,313.06,204Z" transform="translate(-56.65 -88.93)"/><path class="cls-14" d="M313.06,204l-.81-.11a1.08,1.08,0,0,1-.93-1.22h0a1.08,1.08,0,0,1,1.22-.94l.8.11a1.1,1.1,0,0,1,.94,1.22h0A1.1,1.1,0,0,1,313.06,204Z" transform="translate(-56.65 -88.93)"/><polygon class="cls-1" points="267.23 124.91 261.29 130.75 263.66 137.9 271.93 128.8 267.23 124.91"/><polygon class="cls-1" points="258.64 126.13 259.6 130.63 256.52 136.98 254.6 128.73 258.64 126.13"/><path class="cls-7" d="M322.6,218.91l3.45-12.63s-1.67-3.14-1.31-3.8,2.16-9.14,3.44-10.06,6.55.65,7.08,1.51-5.05,12.35-5.05,12.35l-2,13.69Z" transform="translate(-56.65 -88.93)"/><path class="cls-1" d="M343,221c9.5,9.72-9.53,31.74-20.44,30.8s.28-40.86.28-40.86l7,1.15s-2.45,17.28-1.68,18.63S339.85,217.77,343,221Z" transform="translate(-56.65 -88.93)"/><path class="cls-8" d="M343,221c9.5,9.72-9.53,31.74-20.44,30.8s.28-40.86.28-40.86l7,1.15s-2.45,17.28-1.68,18.63S339.85,217.77,343,221Z" transform="translate(-56.65 -88.93)"/><polygon class="cls-1" points="265.65 120.76 264.62 124.06 274.35 124.91 274.35 122.04 265.65 120.76"/><rect class="cls-6" x="246.18" y="146.87" width="5.52" height="9.02" rx="0.79"/><rect class="cls-8" x="246.51" y="147.46" width="4.48" height="6.13"/><rect class="cls-3" x="248.35" y="144.69" width="0.99" height="3.61"/><path class="cls-1" d="M223.71,389.17a8.88,8.88,0,0,1,3.17-.81h0s3.8-2.23,7.56-10.92l4.23,0a3.48,3.48,0,0,1,3.26,2.33,1.87,1.87,0,0,1,.12.58,26.08,26.08,0,0,1-.33,3.05,84.35,84.35,0,0,1-2.47,10l-.72-.18,1.3-6.32c.44-2.14-1.82-.07-2.86,2.09s-2.65,4.35-7.33,3.28C224.19,390.93,222,390.15,223.71,389.17Z" transform="translate(-56.65 -88.93)"/><path class="cls-7" d="M235.21,375.17s-5.29,11.06-8.33,13.19c0,0,4.08,2.43,8.33-3,5.49-7,6.84-5.05,6.84-5.05a20.1,20.1,0,0,0-.67-3.57C240.56,374.5,235.21,375.17,235.21,375.17Z" transform="translate(-56.65 -88.93)"/><path class="cls-1" d="M281.93,415.52a9.25,9.25,0,0,1,2.89-1.54h0s3.16-3.07,4.75-12.4l4.11-1a3.49,3.49,0,0,1,3.71,1.5,2.07,2.07,0,0,1,.26.54,23.88,23.88,0,0,1,.41,3,84.1,84.1,0,0,1-.05,10.26h-.74l-.23-6.44c-.09-2.19-1.78.36-2.29,2.71s-1.54,4.84-6.34,4.91C282.82,417.12,280.5,416.88,281.93,415.52Z" transform="translate(-56.65 -88.93)"/><path class="cls-7" d="M289.78,399.19s-2.51,12-5,14.79c0,0,4.54,1.4,7.38-4.87,3.68-8.1,5.45-6.52,5.45-6.52a20,20,0,0,0-1.49-3.31C294.82,397.28,289.78,399.19,289.78,399.19Z" transform="translate(-56.65 -88.93)"/></g><g id="Speech_bubble" data-name="Speech bubble"><rect class="cls-1" x="286.13" y="68.21" width="45.05" height="25.07" rx="5.07"/><polygon class="cls-1" points="298.2 90.43 287.69 104.73 304.66 91.39 298.2 90.43"/><path class="cls-10" d="M355.24,169.68a1.48,1.48,0,1,1-1.47-1.47A1.47,1.47,0,0,1,355.24,169.68Z" transform="translate(-56.65 -88.93)"/><path class="cls-10" d="M362.93,169.68a1.48,1.48,0,1,1-1.47-1.47A1.47,1.47,0,0,1,362.93,169.68Z" transform="translate(-56.65 -88.93)"/><path class="cls-10" d="M370.62,169.68a1.48,1.48,0,1,1-1.47-1.47A1.47,1.47,0,0,1,370.62,169.68Z" transform="translate(-56.65 -88.93)"/><path class="cls-10" d="M378.31,169.68a1.48,1.48,0,1,1-1.47-1.47A1.47,1.47,0,0,1,378.31,169.68Z" transform="translate(-56.65 -88.93)"/></g><g id="Bird"><rect class="cls-1" x="219.08" y="137.45" width="31.05" height="19.52" rx="1.38" transform="translate(41.21 -182.58) rotate(28.31)"/><rect class="cls-16" x="219.08" y="137.45" width="31.05" height="19.52" rx="1.38" transform="translate(41.21 -182.58) rotate(28.31)"/><path class="cls-8" d="M224.25,133.69,232,148.24a3.18,3.18,0,0,0,3.12,1.66l16.21-1.6-16.5,2.43a3.38,3.38,0,0,1-3.56-1.92Z" transform="translate(-56.65 -88.93)"/><path class="cls-1" d="M205.34,131c.27-5.56,4.39-16.77,9.4-20.2s1.71,1.32,1.71,1.32,4.75-4.62,7.25-4.48,0,3,0,3,5.15-3.17,7.52-3,0,2.91,0,2.91,4.22-3,5.93-1.59-21.89,17-24.52,23.34S205.07,136.61,205.34,131Z" transform="translate(-56.65 -88.93)"/><path class="cls-17" d="M205.34,131c.27-5.56,4.39-16.77,9.4-20.2s1.71,1.32,1.71,1.32,4.75-4.62,7.25-4.48,0,3,0,3,5.15-3.17,7.52-3,0,2.91,0,2.91,4.22-3,5.93-1.59-21.89,17-24.52,23.34S205.07,136.61,205.34,131Z" transform="translate(-56.65 -88.93)"/><path class="cls-1" d="M225.62,130.16l3.15,2a.26.26,0,0,1-.16.48l-3.31-.26.28,2.54a.28.28,0,0,1-.49.22L223.18,133Z" transform="translate(-56.65 -88.93)"/><path class="cls-5" d="M225.62,130.16l3.15,2a.26.26,0,0,1-.16.48l-3.31-.26.28,2.54a.28.28,0,0,1-.49.22L223.18,133Z" transform="translate(-56.65 -88.93)"/><path class="cls-1" d="M181.37,117.64s4.36-3,10.95-1.06c0,0,1.89,8.71,7.08,11.61,2.85,1.59,9.82,1.45,15.34-.33,6.55-2.12,9.75-2.12,10.94.33s-.13,5-5.14,6.19-9,9.89-18.07,10-13.89-9-11.6-17A24.16,24.16,0,0,0,181.37,117.64Z" transform="translate(-56.65 -88.93)"/><path class="cls-18" d="M181.37,117.64s4.36-3,10.95-1.06c0,0,1.89,8.71,7.08,11.61,2.85,1.59,9.82,1.45,15.34-.33,6.55-2.12,9.75-2.12,10.94.33s-.13,5-5.14,6.19-9,9.89-18.07,10-13.89-9-11.6-17A24.16,24.16,0,0,0,181.37,117.64Z" transform="translate(-56.65 -88.93)"/><path class="cls-3" d="M223.18,129.84a.45.45,0,1,1-.45-.45A.45.45,0,0,1,223.18,129.84Z" transform="translate(-56.65 -88.93)"/><path class="cls-1" d="M200.36,137.16c-5.37,1.46-17.31,1-22.11-2.7s.72-2,.72-2-5.85-3.09-6.5-5.51,2.88-.94,2.88-.94-4.6-3.91-5.2-6.21,2.76-.9,2.76-.9-4.19-3.08-3.34-5.15,22.94,15.57,29.77,16.12S205.8,135.68,200.36,137.16Z" transform="translate(-56.65 -88.93)"/><path class="cls-17" d="M200.36,137.16c-5.37,1.46-17.31,1-22.11-2.7s.72-2,.72-2-5.85-3.09-6.5-5.51,2.88-.94,2.88-.94-4.6-3.91-5.2-6.21,2.76-.9,2.76-.9-4.19-3.08-3.34-5.15,22.94,15.57,29.77,16.12S205.8,135.68,200.36,137.16Z" transform="translate(-56.65 -88.93)"/><path class="cls-19" d="M165.16,112.46c-.94-.34-1.89-.65-2.85-.94" transform="translate(-56.65 -88.93)"/><path class="cls-20" d="M156.47,110a79.81,79.81,0,0,0-10.61-1.46c-9.72-.67-25-1.64-30.92,8.05-5.43,8.83,3.91,23.9,7.22,32.09,4.06,10,8.89,22.46,4.09,33.08-9.85,21.84-52,10.5-66.28-9.61" transform="translate(-56.65 -88.93)"/><path class="cls-19" d="M58.36,169.64A26.94,26.94,0,0,1,57,167" transform="translate(-56.65 -88.93)"/></g><g id="Desk"><rect class="cls-10" x="85.2" y="160.11" width="37.96" height="7.78"/><rect class="cls-9" x="85.2" y="160.11" width="37.96" height="7.78"/><rect class="cls-9" x="85.2" y="160.11" width="15.99" height="7.78"/><polygon class="cls-9" points="85.2 161.23 118.99 161.23 85.2 162.19 85.2 161.23"/><polygon class="cls-9" points="123.16 162.58 93.87 163.31 123.16 163.31 123.16 162.58"/><polygon class="cls-9" points="86.75 164.76 101.19 164.16 122.42 164.76 101.19 165.09 86.75 164.76"/><polygon class="cls-9" points="85.2 166.41 110.22 166.41 85.2 167 85.2 166.41"/><polygon class="cls-9" points="123.11 167 106.4 167.31 123.16 167.31 123.11 167"/><rect class="cls-10" x="79.92" y="152.32" width="37.96" height="7.78"/><rect class="cls-9" x="79.92" y="152.32" width="37.96" height="7.78"/><rect class="cls-9" x="79.92" y="152.32" width="15.99" height="7.78"/><polygon class="cls-9" points="79.92 153.44 113.71 153.44 79.92 154.4 79.92 153.44"/><polygon class="cls-9" points="117.88 154.8 88.59 155.52 117.88 155.52 117.88 154.8"/><polygon class="cls-9" points="81.47 156.97 95.91 156.38 117.14 156.97 95.91 157.3 81.47 156.97"/><polygon class="cls-9" points="79.92 158.62 104.94 158.62 79.92 159.21 79.92 158.62"/><polygon class="cls-9" points="117.82 159.21 101.12 159.52 117.88 159.52 117.82 159.21"/><rect class="cls-10" x="84.25" y="144.54" width="37.96" height="7.78"/><rect class="cls-9" x="84.25" y="144.54" width="37.96" height="7.78"/><rect class="cls-9" x="84.25" y="144.54" width="15.99" height="7.78"/><polygon class="cls-9" points="84.25 145.66 118.04 145.66 84.25 146.62 84.25 145.66"/><polygon class="cls-9" points="122.21 147.01 92.92 147.74 122.21 147.74 122.21 147.01"/><polygon class="cls-9" points="85.8 149.19 100.24 148.59 121.47 149.19 100.24 149.52 85.8 149.19"/><polygon class="cls-9" points="84.25 150.84 109.27 150.84 84.25 151.43 84.25 150.84"/><polygon class="cls-9" points="122.16 151.43 105.45 151.74 122.21 151.74 122.16 151.43"/><polygon class="cls-3" points="147.5 167.73 148.49 164 189.04 164 207.71 165.87 208.42 167.73 147.5 167.73"/><polygon class="cls-14" points="189.04 164 189.04 167.73 147.5 167.73 148.49 164 189.04 164"/><path class="cls-3" d="M237.54,235.08a3.19,3.19,0,0,1-3.22,3.57H172.2a4,4,0,0,1-3.89-3.57l-3.69-39.77a3.41,3.41,0,0,1,.08-1.16,3.17,3.17,0,0,1,3.14-2.41H230a4,4,0,0,1,3.89,3.57Z" transform="translate(-56.65 -88.93)"/><path class="cls-14" d="M234.1,238.65H172.2a4,4,0,0,1-3.89-3.57l-3.69-39.77a3.41,3.41,0,0,1,.08-1.16h61.9a4,4,0,0,1,3.89,3.57l3.69,39.77A3.41,3.41,0,0,1,234.1,238.65Z" transform="translate(-56.65 -88.93)"/><polygon class="cls-3" points="134.77 125.32 147.63 125.32 144.2 162.12 164.52 165.17 164.52 167.73 121.72 167.73 121.72 165.17 130.49 162.12 134.77 125.32"/><polygon class="cls-21" points="147.63 125.32 138.1 167.15 130.49 166.92 134.77 125.32 147.63 125.32"/><polygon class="cls-3" points="147.57 328.14 141.44 328.14 130.43 174.89 138.56 174.89 147.57 328.14"/><polygon class="cls-17" points="147.57 328.14 141.44 328.14 130.97 182.5 130.43 175.14 138.56 175.14 139 182.5 147.57 328.14"/><polygon class="cls-8" points="139 182.14 130.97 182.14 130.43 175.14 138.56 175.14 139 182.14"/><polygon class="cls-3" points="192.53 328.14 186.4 328.14 185.4 174.89 193.53 174.89 192.53 328.14"/><polygon class="cls-18" points="193.53 175.14 193.37 199.86 192.53 328.14 186.4 328.14 185.56 199.86 185.4 175.14 193.53 175.14"/><polygon class="cls-8" points="193.53 175.14 193.37 200.14 185.56 200.14 185.4 175.14 193.53 175.14"/><polygon class="cls-3" points="257.57 328.14 251.44 328.14 240.43 174.89 248.56 174.89 257.57 328.14"/><polygon class="cls-18" points="257.57 328.14 251.44 328.14 240.97 182.5 240.43 175.14 248.56 175.14 249 182.5 257.57 328.14"/><polygon class="cls-8" points="249 182.14 240.97 182.14 240.43 175.14 248.56 175.14 249 182.14"/><polygon class="cls-3" points="77.48 328.14 71.36 328.14 80.36 174.89 88.49 174.89 77.48 328.14"/><polygon class="cls-18" points="88.49 175.14 87.95 182.5 77.48 328.14 71.36 328.14 79.92 182.5 80.36 175.14 88.49 175.14"/><polygon class="cls-8" points="80.36 175.14 88.49 175.14 87.95 182.14 79.92 182.14 80.36 175.14"/><path class="cls-1" d="M73.92,171.05H255a0,0,0,0,1,0,0v5.51a2.16,2.16,0,0,1-2.16,2.16H76.08a2.16,2.16,0,0,1-2.16-2.16v-5.51A0,0,0,0,1,73.92,171.05Z"/><path class="cls-6" d="M73.92,171.05H255a0,0,0,0,1,0,0v5.51a2.16,2.16,0,0,1-2.16,2.16H76.08a2.16,2.16,0,0,1-2.16-2.16v-5.51A0,0,0,0,1,73.92,171.05Z"/><rect class="cls-8" x="73.92" y="171.05" width="181.08" height="3.84"/><path class="cls-1" d="M315.45,261H126.77a2.16,2.16,0,0,1-2.16-2.16h0a2.17,2.17,0,0,1,2.16-2.17H315.45a2.17,2.17,0,0,1,2.16,2.17h0A2.16,2.16,0,0,1,315.45,261Z" transform="translate(-56.65 -88.93)"/><path class="cls-6" d="M315.45,261H126.77a2.16,2.16,0,0,1-2.16-2.16h0a2.17,2.17,0,0,1,2.16-2.17H315.45a2.17,2.17,0,0,1,2.16,2.17h0A2.16,2.16,0,0,1,315.45,261Z" transform="translate(-56.65 -88.93)"/><path class="cls-1" d="M270.81,250l2.32-3.48a2.5,2.5,0,0,1,2.08-1.11h2.94a2.46,2.46,0,0,1,.72.11l10.49,3.18a2.47,2.47,0,0,1,1.42,1.11l1.51,2.53Z" transform="translate(-56.65 -88.93)"/><path class="cls-8" d="M292.29,252.34,277,250.68l-6.21-.68,2.32-3.48a2.5,2.5,0,0,1,2.08-1.11h2.94a2.58,2.58,0,0,1,.73.11l.23.07,10.25,3.11a2.48,2.48,0,0,1,1.43,1.11Z" transform="translate(-56.65 -88.93)"/><path class="cls-8" d="M292.29,252.34,277,250.68l2.09-5.09,10.25,3.11a2.48,2.48,0,0,1,1.43,1.11Z" transform="translate(-56.65 -88.93)"/><path class="cls-1" d="M299.55,256.33v.33H267.13l1.2-4.69a4,4,0,0,1,3.89-3H286.6a3.94,3.94,0,0,1,1.4.25l1.8.67,7.14,2.66A4,4,0,0,1,299.55,256.33Z" transform="translate(-56.65 -88.93)"/><path class="cls-8" d="M299.55,256.33v.33H286.24l.71-5.07a2.13,2.13,0,0,1,2.85-1.69l7.14,2.66A4,4,0,0,1,299.55,256.33Z" transform="translate(-56.65 -88.93)"/><path class="cls-3" d="M288.31,253.22l4.24-12.71a.93.93,0,0,1,1.32-.54h0a1,1,0,0,1,.48,1.08l-3.57,13.56S288.41,255.57,288.31,253.22Z" transform="translate(-56.65 -88.93)"/><polygon class="cls-8" points="214.16 166.67 212.28 166.67 212.64 164.83 214.52 164.83 214.16 166.67"/><polygon class="cls-8" points="216.96 166.6 215.08 166.6 215.44 164.76 217.32 164.76 216.96 166.6"/></g></svg>