<?xml version="1.0" encoding="utf-8"?>
<!-- Generator: Adobe Illustrator 23.0.1, SVG Export Plug-In . SVG Version: 6.00 Build 0)  -->
<svg version="1.1" id="Layer_1" xmlns="http://www.w3.org/2000/svg" xmlns:xlink="http://www.w3.org/1999/xlink" x="0px" y="0px"
	 viewBox="0 0 512 512" style="enable-background:new 0 0 512 512;" xml:space="preserve">
<style type="text/css">
	.st0{clip-path:url(#SVGID_2_);}
	.st1{fill:#E6E6E6;}
	.st2{fill:#F2F2F2;}
	.st3{fill:#CCCCCC;}
	.st4{fill:#3F3D56;}
	.st5{fill:#FFFFFF;}
	.st6{fill:#FFB8B8;}
	.st7{fill:#2F2E41;}
</style>
<g>
	<defs>
		<rect id="SVGID_1_" width="512" height="512"/>
	</defs>
	<clipPath id="SVGID_2_">
		<use xlink:href="#SVGID_1_"  style="overflow:visible;"/>
	</clipPath>
	<g id="Group_1" transform="translate(12.237 56.237)" class="st0">
		<path id="Path_1" class="st1" d="M356.2,328.9c7.9,2.8,16.6,1.2,23-4.1c8.1-6.8,10.6-17.9,12.7-28.2l6.1-30.5l-12.7,8.8
			c-9.2,6.3-18.5,12.8-24.9,22s-9.1,21.6-4,31.5"/>
		<path id="Path_2" class="st2" d="M357.3,365.9c-1.3-9.4-2.6-18.9-1.7-28.4c0.8-8.4,3.4-16.7,8.6-23.4c2.8-3.6,6.2-6.6,10-9.1
			c1-0.6,1.9,1,0.9,1.6c-6.6,4.2-11.8,10.4-14.7,17.7c-3.2,8.1-3.7,17-3.2,25.6c0.3,5.2,1,10.4,1.7,15.6c0.1,0.5-0.2,1-0.6,1.1
			C357.9,366.6,357.4,366.3,357.3,365.9L357.3,365.9z"/>
		<path id="Path_3" class="st1" d="M369.7,349.2c3.4,5.1,9.2,8.1,15.3,7.9c7.7-0.4,14.2-5.8,20-10.9l17.2-15.2l-11.4-0.5
			c-8.2-0.4-16.6-0.8-24.4,1.8s-15,8.6-16.4,16.7"/>
		<path id="Path_4" class="st2" d="M353.6,371.3c6.2-11,13.4-23.2,26.3-27.1c3.6-1.1,7.3-1.5,11-1.1c1.2,0.1,0.9,1.9-0.3,1.8
			c-6.2-0.5-12.5,1.1-17.6,4.7c-5,3.4-8.8,8.1-12.1,13.1c-2,3.1-3.8,6.2-5.6,9.4C354.7,373,353,372.3,353.6,371.3L353.6,371.3z"/>
		<path id="Path_5" class="st1" d="M200.6,294.1c-15.5,5.4-32.7,2.4-45.4-8c-15.9-13.3-20.9-35.3-24.9-55.7l-12-60.2l25.1,17.3
			c18.1,12.4,36.5,25.3,49,43.3s18,42.6,7.9,62.1"/>
		<path id="Path_6" class="st2" d="M198.5,367c2.5-18.5,5.2-37.3,3.4-56c-1.6-16.6-6.7-32.8-17-46.2c-5.5-7.1-12.1-13.1-19.7-17.9
			c-2-1.2-3.8,1.9-1.8,3.1c13.1,8.3,23.2,20.5,28.9,34.8c6.3,16,7.3,33.4,6.2,50.4c-0.7,10.3-2,20.5-3.4,30.7
			c-0.2,1,0.3,1.9,1.3,2.2C197.2,368.5,198.2,367.9,198.5,367L198.5,367z"/>
		<path id="Path_7" class="st1" d="M174,334.2c-6.6,10.1-18.1,16-30.1,15.6c-15.3-0.7-28-11.4-39.4-21.5l-33.9-29.9l22.4-1.1
			c16.1-0.8,32.7-1.5,48,3.5s29.5,16.9,32.3,32.8"/>
		<path id="Path_8" class="st2" d="M205.7,377.6c-12.2-21.6-26.4-45.7-51.8-53.4c-7-2.1-14.4-2.9-21.8-2.2c-2.3,0.2-1.7,3.8,0.6,3.6
			c12.3-1,24.6,2.2,34.8,9.2c9.8,6.7,17.4,15.9,23.9,25.8c4,6,7.5,12.3,11,18.6C203.5,381.1,206.8,379.6,205.7,377.6z"/>
		<path id="Path_9" class="st3" d="M111.3,84.6L5.9,62.5l-1.4-0.3c-2-0.4-4.1,0.9-4.5,2.9C-0.1,66,0,66.9,0.4,67.6l42.3,84.6
			c0.9,1.9,3.2,2.6,5.1,1.7c0.4-0.2,0.8-0.5,1.1-0.8l28.8-30.8c0.4-0.5,1-0.7,1.6-0.7c0.8,0,1.6,0.4,2,1.2l6,11
			c0.8,1.5,2.5,2.3,4.2,1.9l0,0c1.7-0.4,2.9-1.8,2.9-3.5l1-25.4c0-0.3,0.1-0.6,0.2-0.9c0.1-0.3,0.3-0.5,0.6-0.7l16.7-13.8
			c1.6-1.3,1.8-3.7,0.5-5.3C112.8,85.2,112.1,84.8,111.3,84.6L111.3,84.6z M111.9,90l-16.7,13.8c-0.2,0.2-0.4,0.4-0.6,0.6L5.8,64.8
			c-0.1,0-0.2-0.1-0.2-0.1c-0.8-0.2-1.6,0.3-1.8,1.1c-0.1,0.6,0.1,1.2,0.6,1.6l73.2,53.1c-0.4,0.2-0.7,0.5-1,0.8L47.7,152
			c-0.9,0.9-2.3,1-3.2,0.1c-0.2-0.2-0.4-0.4-0.5-0.6L1.8,66.9c-0.6-1.1-0.1-2.5,1-3c0.5-0.2,1-0.3,1.5-0.2L5.7,64l105.3,22.1
			c1.2,0.3,2,1.5,1.8,2.7C112.6,89.3,112.3,89.7,111.9,90L111.9,90z"/>
		<path id="Path_10" class="st4" d="M111.3,84.6L5.9,62.5l-1.4-0.3c-2-0.4-4.1,0.9-4.5,2.9C-0.1,66,0,66.9,0.4,67.6l42.3,84.6
			c0.9,1.9,3.2,2.6,5.1,1.7c0.4-0.2,0.8-0.5,1.1-0.8l28.8-30.8c0.4-0.5,1-0.7,1.6-0.7c0.8,0,1.6,0.4,2,1.2l6,11
			c0.8,1.5,2.5,2.3,4.2,1.9l0,0c1.7-0.4,2.9-1.8,2.9-3.5l1-25.4c0-0.3,0.1-0.6,0.2-0.9c0.1-0.3,0.3-0.5,0.6-0.7l16.7-13.8
			c1.6-1.3,1.8-3.7,0.5-5.3C112.8,85.2,112.1,84.8,111.3,84.6L111.3,84.6z"/>
		<g id="XMLID_1_">
			<g>
				<path class="st5" d="M5.7,64l105.3,22.1c1.2,0.3,2,1.5,1.8,2.7c-0.1,0.5-0.4,0.9-0.8,1.3v0l-16.7,13.8c-0.2,0.2-0.4,0.4-0.6,0.6
					c-0.2,0.2-0.3,0.4-0.4,0.6c-0.1,0.2-0.2,0.5-0.3,0.7c-0.1,0.3-0.1,0.5-0.1,0.8l-1,25.4c0,1-0.7,1.9-1.7,2.1h0
					c-1,0.3-2-0.2-2.5-1.1l-6-11c-0.6-1.1-1.8-1.9-3.1-1.9h0c-0.1,0-0.2,0-0.3,0c-0.6,0-1.2,0.1-1.7,0.4c-0.4,0.2-0.7,0.5-1,0.8
					l-28.8,30.8c-0.9,0.9-2.3,1-3.2,0.1c-0.2-0.2-0.3-0.4-0.5-0.6L1.8,67c-0.6-1.1-0.1-2.5,1-3.1c0.5-0.2,1-0.3,1.5-0.2L5.7,64z"/>
			</g>
			<g>
			</g>
		</g>
		<path id="Path_11" class="st4" d="M95,104.6l-0.6,1.4l-0.4-0.2v0L5.2,66.2l74.3,53.9h0l0.2,0.1l-0.9,1.2l-1.3-0.9L4.3,67.4
			c-0.7-0.5-0.8-1.4-0.3-2.1c0.4-0.5,1-0.7,1.6-0.6c0.1,0,0.2,0,0.2,0.1l88.9,39.7L95,104.6z"/>
		<path id="Path_12" class="st6" d="M323.7,210.3l3.8,37.6l0.1,0.8l1.1,11.1l9.4,91.8v0l1.8,17.8c-0.7,1-1.3,2-1.9,3
			c-3.4,6.6-3.1,14.5,0.6,20.9c4.6-1.1,9.1-2.5,13.5-3.9c9.2-3,18.2-6.7,26.9-11c-0.9-5-3.5-9.5-7.3-12.7l-9.4-113.2l-0.8-9.9
			l-2.7-32.2L323.7,210.3z"/>
		<circle id="Ellipse_1" class="st6" cx="315.5" cy="72.8" r="49.7"/>
		<path id="Path_13" class="st5" d="M222.7,278.1c0,0.1,0,0.2,0,0.3c0.3,4,3.2,7.3,7.1,8.1l74.2,16.2c0.6,0.1,1.3,0.2,2,0.2
			c4.1,0,7.7-2.7,8.8-6.7c0.2-0.6,0.3-1.2,0.5-1.8v0c2.5-8.5,7-20.1,13.4-34.6c1.4-3.3,3-6.7,4.6-10.3c0.3-0.7,0.6-1.3,0.9-2
			c3.4-7.4,7.2-15.4,11.4-24c2-4.2,3.6-8.6,4.6-13.2c2.7-12,1.6-24.6-3-36c-1-2.3-2.1-4.6-3.3-6.8C334,150,316.1,138.6,296,137
			c-1.6-0.1-3.1-0.2-4.7-0.2c-15.7,0.1-30.7,6.2-42,17c-6.7,6.5-11.7,14.4-14.8,23.1c-0.2,0.6-0.4,1.1-0.6,1.7
			c-2.8,8.9-5,17.9-6.7,27c-1,5.4-1.8,10.8-2.5,16C222.5,240.4,221.8,259.3,222.7,278.1L222.7,278.1z"/>
		<path id="Path_14" class="st7" d="M190.1,373.2c45.1,25.6,98.4,32.9,148.7,20.2c4.6-1.1,9.1-2.5,13.5-3.9
			c-3.9-12.9-8.7-25.5-14.1-37.8v0c-9.1-20.4-17.4-32.9-21.5-38.4c-1.4-1.9-1.7-4.2-1-6.4l1.3-3.8c1-2.9,0.4-6.1-1.5-8.5v0
			c-0.1-0.1-0.2-0.2-0.3-0.3c-33.1-37.7-90.7-17.1-91.3-16.9l-0.3,0.1l-0.2,0.3c-0.2,0.3-0.4,0.5-0.6,0.8
			C207.1,300.3,196.8,334,190.1,373.2z"/>
		<path id="Path_15" class="st6" d="M122.1,130.6c0.2,1.1,0.4,2.2,0.5,3.3l87,50.2l21.1-12.2l22.5,29.5l-35.3,25.2
			c-5.9,4.2-13.8,4-19.4-0.5l-89.7-70.8c-11,4.1-23.2-1.5-27.3-12.6c-4.1-11,1.5-23.2,12.6-27.3c11-4.1,23.2,1.5,27.3,12.6
			C121.6,128.9,121.9,129.7,122.1,130.6L122.1,130.6z"/>
		<path id="Path_16" class="st5" d="M210.9,183.3L210.9,183.3c0.3,1.1,0.8,2.2,1.6,3.1l14.8,19.2l7.1,9.2l6.2,8
			c3.1,4,8.8,4.7,12.8,1.6c0.4-0.3,0.7-0.6,1-0.9l22.5-23.4l9.3-9.7c11.1-8.5,13.2-24.4,4.7-35.5s-24.4-13.2-35.5-4.7
			c-0.1,0.1-0.2,0.1-0.2,0.2l-5.8,3.2L215.2,173C211.6,175,209.8,179.3,210.9,183.3L210.9,183.3z"/>
		<path id="Path_17" class="st5" d="M309.3,195.4l1.4,45.4l0,0.3c0.2,5,4.4,9,9.4,8.8c0.5,0,0.9-0.1,1.3-0.1l6.2-1.1l1.6-0.3h0
			l5.1-0.9l27.2-4.9l5.2-0.9c5-0.9,8.2-5.6,7.3-10.6c-0.1-0.4-0.2-0.9-0.3-1.3l-14.7-43.5c-2.5-13.7-15.7-22.8-29.5-20.3
			C315.9,168.5,306.8,181.7,309.3,195.4L309.3,195.4z"/>
		<path id="Path_18" class="st7" d="M307.6,61.4c-12.8,8.7-29.6,17.7-42.6,8.4c-8.6-6.1-11.3-17.4-7.8-27.4
			c6.3-17.9,23.4-25.8,39.9-31.8c21.4-7.8,44.6-14.1,66.7-8.5s41.5,27,37.6,49.4c-3.2,18-20.2,33-17.8,51.1
			c2.4,18.3,23,27.9,41.1,31.1s38.4,4.3,51.4,17.3c16.6,16.6,12.5,46.3-3.2,63.8s-39.2,25.5-62.1,30.9c-30.3,7.2-63,10.9-91.8-1
			S267.7,201,276.1,171c3.5-12.7,11.8-23.4,19.8-33.8s16.1-21.3,19.2-34.1c2.5-10.7,0.7-23-6.4-31c-2.6-2.9-3.1-7.1-1.2-10.5
			L307.6,61.4z"/>
	</g>
</g>
</svg>
