<svg width="208" height="102" viewBox="0 0 208 102" fill="none" xmlns="http://www.w3.org/2000/svg">
<path d="M0.664062 49.1396C0.664062 44.292 1.37793 39.7266 2.80566 35.4434C4.2666 31.127 6.20898 27.1592 8.63281 23.54C11.0898 19.8877 13.9121 16.6172 17.0996 13.7285C20.3203 10.8398 23.6738 8.39941 27.1602 6.40723C30.6797 4.38184 34.2324 2.83789 37.8184 1.77539C41.4375 0.679688 44.874 0.131836 48.1279 0.131836C51.0166 0.131836 53.7559 0.463867 56.3457 1.12793C58.9688 1.79199 61.293 2.80469 63.3184 4.16602C65.377 5.52734 67.0869 7.25391 68.4482 9.3457C69.8096 11.4043 70.7227 13.8281 71.1875 16.6172C71.2207 16.7832 71.2373 16.9326 71.2373 17.0654C71.2373 17.1982 71.2373 17.3477 71.2373 17.5137C71.2373 18.8086 70.8555 19.8047 70.0918 20.502C69.3613 21.166 68.5645 21.498 67.7012 21.498C66.7383 21.498 65.8418 20.9834 65.0117 19.9541C64.1816 18.9248 63.3848 17.4639 62.6211 15.5713C61.3926 13.2471 59.6162 11.5537 57.292 10.4912C54.9678 9.42871 52.3447 8.89746 49.4229 8.89746C46.8662 8.89746 44.1768 9.3623 41.3545 10.292C38.5654 11.2217 35.793 12.5332 33.0371 14.2266C30.3145 15.9199 27.708 17.9619 25.2178 20.3525C22.7275 22.71 20.5361 25.333 18.6436 28.2217C16.751 31.0771 15.2402 34.165 14.1113 37.4854C13.0156 40.8057 12.4678 44.2422 12.4678 47.7949C12.4678 50.75 12.833 53.2402 13.5635 55.2656C14.2939 57.291 15.2568 58.9346 16.4521 60.1963C17.6475 61.458 18.9922 62.3711 20.4863 62.9355C21.9805 63.5 23.4912 63.7822 25.0186 63.7822C28.4385 63.7822 31.6924 62.8525 34.7803 60.9932C37.9014 59.1338 40.6406 56.4775 42.998 53.0244C45.3555 49.5381 47.2314 45.3047 48.626 40.3242C50.0205 35.3105 50.7178 29.666 50.7178 23.3906C50.7178 22.7598 50.7012 22.1455 50.668 21.5479C50.668 20.917 50.668 20.2695 50.668 19.6055C50.668 17.9453 50.9668 16.7334 51.5645 15.9697C52.1621 15.1729 52.8428 14.7744 53.6064 14.7744C54.9014 14.7744 55.9473 15.1396 56.7441 15.8701C57.5742 16.5674 58.2217 17.5137 58.6865 18.709C59.1514 19.8711 59.4668 21.2158 59.6328 22.7432C59.832 24.2373 59.9316 25.7812 59.9316 27.375C59.9316 31.8906 59.4502 36.1572 58.4873 40.1748C57.5244 44.1592 56.1797 47.8613 54.4531 51.2812C52.7598 54.668 50.7344 57.7227 48.377 60.4453C46.0527 63.1348 43.5293 65.4258 40.8066 67.3184C38.084 69.1777 35.2119 70.6221 32.1904 71.6514C29.2021 72.6475 26.1807 73.1455 23.126 73.1455C20.3037 73.1455 17.5479 72.7471 14.8584 71.9502C12.1689 71.1201 9.76172 69.7754 7.63672 67.916C5.54492 66.0234 3.85156 63.5498 2.55664 60.4951C1.29492 57.4072 0.664062 53.6221 0.664062 49.1396ZM113.671 48.5918C114.136 48.3262 114.567 48.1104 114.966 47.9443C115.364 47.7783 115.746 47.6953 116.111 47.6953C116.842 47.6953 117.39 47.9775 117.755 48.542C118.12 49.0732 118.303 49.7373 118.303 50.5342C118.303 51.3975 118.07 52.2773 117.605 53.1738C117.174 54.0703 116.51 54.8174 115.613 55.415C112.061 58.0713 108.89 60.4951 106.101 62.6865C103.312 64.8779 100.672 66.7705 98.1816 68.3643C95.7246 69.9248 93.3174 71.1367 90.96 72C88.6025 72.8633 86.0791 73.2949 83.3896 73.2949C80.8662 73.2949 78.9072 72.8301 77.5127 71.9004C76.1514 70.9707 75.4707 69.6924 75.4707 68.0654C75.4707 67.9326 75.4707 67.8164 75.4707 67.7168C75.4707 67.584 75.4873 67.4346 75.5205 67.2686C75.6533 66.2725 76.168 65.127 77.0645 63.832C77.9609 62.5371 79.04 61.1924 80.3018 59.7979C81.5635 58.4033 82.9082 56.9922 84.3359 55.5645C85.7637 54.1367 87.0752 52.792 88.2705 51.5303C89.499 50.2354 90.5117 49.0566 91.3086 47.9941C92.1055 46.9316 92.5039 46.0684 92.5039 45.4043C92.5039 45.0059 92.3379 44.6904 92.0059 44.458C91.6738 44.2256 91.126 44.1094 90.3623 44.1094C89.0342 44.1094 87.6562 44.4082 86.2285 45.0059C84.834 45.5703 83.4395 46.3506 82.0449 47.3467C80.6836 48.3096 79.3389 49.4219 78.0107 50.6836C76.7158 51.9453 75.4873 53.2568 74.3252 54.6182C73.1963 55.9795 72.1504 57.3574 71.1875 58.752C70.2578 60.1133 69.4609 61.375 68.7969 62.5371C68.5977 62.9023 68.3154 63.417 67.9502 64.0811C67.585 64.7451 67.1865 65.4922 66.7549 66.3223C66.3232 67.1523 65.8584 68.0156 65.3604 68.9121C64.8955 69.7754 64.4639 70.6055 64.0654 71.4023C63.667 72.166 63.3018 72.8467 62.9697 73.4443C62.6709 74.0752 62.4551 74.5068 62.3223 74.7393C62.1562 75.0381 61.874 75.6025 61.4756 76.4326C61.1104 77.2627 60.6787 78.2256 60.1807 79.3213C59.6826 80.4502 59.1514 81.6289 58.5869 82.8574C58.0557 84.0859 57.541 85.248 57.043 86.3438C56.5781 87.4395 56.1631 88.4023 55.7979 89.2324C55.4326 90.0625 55.2002 90.627 55.1006 90.9258C54.7686 91.7891 54.3867 92.6025 53.9551 93.3662C53.4902 94.1299 52.9756 94.7939 52.4111 95.3584C51.8135 95.9561 51.1494 96.4209 50.4189 96.7529C49.6553 97.1182 48.8086 97.3008 47.8789 97.3008C46.6836 97.3008 45.7041 97.0518 44.9404 96.5537C44.1436 96.0889 43.7451 95.1758 43.7451 93.8145C43.7451 93.1504 43.8447 92.4697 44.0439 91.7725C44.2432 91.0752 44.4922 90.3779 44.791 89.6807C45.0898 89.0166 45.4053 88.3525 45.7373 87.6885C46.0361 87.0576 46.3184 86.4434 46.584 85.8457C48.377 82.5254 50.2031 79.1885 52.0625 75.835C53.9219 72.5146 55.6982 69.2275 57.3916 65.9736C59.1182 62.6865 60.7119 59.4658 62.1729 56.3115C63.6338 53.1572 64.8457 50.1357 65.8086 47.2471C66.0742 46.6494 66.4395 45.8027 66.9043 44.707C67.3691 43.6113 67.9004 42.5322 68.498 41.4697C69.0957 40.4072 69.7598 39.4941 70.4902 38.7305C71.2539 37.9336 72.0674 37.5352 72.9307 37.5352C74.2588 37.5352 75.2217 37.8008 75.8193 38.332C76.417 38.8301 76.7158 39.5771 76.7158 40.5732C76.7158 40.7725 76.6826 41.0879 76.6162 41.5195C76.5498 41.9512 76.4668 42.416 76.3672 42.9141C76.2676 43.3789 76.1514 43.8271 76.0186 44.2588C75.9189 44.6904 75.8193 45.0059 75.7197 45.2051C76.9482 44.0762 78.2764 42.9639 79.7041 41.8682C81.1318 40.7393 82.6094 39.7266 84.1367 38.8301C85.6641 37.9336 87.2246 37.2031 88.8184 36.6387C90.4121 36.0742 92.0059 35.792 93.5996 35.792C94.6953 35.792 95.7744 35.9248 96.8369 36.1904C97.9326 36.4561 98.8955 36.8545 99.7256 37.3857C100.589 37.8838 101.286 38.5312 101.817 39.3281C102.349 40.0918 102.614 40.9883 102.614 42.0176C102.614 43.3789 102.199 44.8398 101.369 46.4004C100.572 47.9277 99.5596 49.4717 98.3311 51.0322C97.1025 52.5928 95.7744 54.1201 94.3467 55.6143C92.9189 57.0752 91.5742 58.4199 90.3125 59.6484C89.084 60.8438 88.0381 61.873 87.1748 62.7363C86.3447 63.5664 85.9131 64.1309 85.8799 64.4297C85.8799 64.8281 86.0293 65.1602 86.3281 65.4258C86.627 65.6582 87.125 65.7744 87.8223 65.7744C88.3867 65.7744 89.2168 65.5088 90.3125 64.9775C91.4082 64.4463 92.9355 63.5332 94.8945 62.2383C96.8867 60.9102 99.3936 59.1504 102.415 56.959C105.47 54.7344 109.222 51.9453 113.671 48.5918ZM162.479 48.5918C162.944 48.3262 163.376 48.1104 163.774 47.9443C164.173 47.7783 164.555 47.6953 164.92 47.6953C165.65 47.6953 166.198 47.9775 166.563 48.542C166.929 49.0732 167.111 49.7373 167.111 50.5342C167.111 51.3975 166.879 52.2773 166.414 53.1738C165.982 54.0703 165.318 54.8174 164.422 55.415C160.869 58.0713 157.698 60.4951 154.909 62.6865C152.12 64.8779 149.48 66.7705 146.99 68.3643C144.533 69.9248 142.126 71.1367 139.769 72C137.411 72.8633 134.888 73.2949 132.198 73.2949C129.675 73.2949 127.716 72.8301 126.321 71.9004C124.96 70.9707 124.279 69.6924 124.279 68.0654C124.279 67.9326 124.279 67.8164 124.279 67.7168C124.279 67.584 124.296 67.4346 124.329 67.2686C124.462 66.2725 124.977 65.127 125.873 63.832C126.77 62.5371 127.849 61.1924 129.11 59.7979C130.372 58.4033 131.717 56.9922 133.145 55.5645C134.572 54.1367 135.884 52.792 137.079 51.5303C138.308 50.2354 139.32 49.0566 140.117 47.9941C140.914 46.9316 141.312 46.0684 141.312 45.4043C141.312 45.0059 141.146 44.6904 140.814 44.458C140.482 44.2256 139.935 44.1094 139.171 44.1094C137.843 44.1094 136.465 44.4082 135.037 45.0059C133.643 45.5703 132.248 46.3506 130.854 47.3467C129.492 48.3096 128.147 49.4219 126.819 50.6836C125.524 51.9453 124.296 53.2568 123.134 54.6182C122.005 55.9795 120.959 57.3574 119.996 58.752C119.066 60.1133 118.27 61.375 117.605 62.5371C117.406 62.9023 117.124 63.417 116.759 64.0811C116.394 64.7451 115.995 65.4922 115.563 66.3223C115.132 67.1523 114.667 68.0156 114.169 68.9121C113.704 69.7754 113.272 70.6055 112.874 71.4023C112.476 72.166 112.11 72.8467 111.778 73.4443C111.479 74.0752 111.264 74.5068 111.131 74.7393C110.965 75.0381 110.683 75.6025 110.284 76.4326C109.919 77.2627 109.487 78.2256 108.989 79.3213C108.491 80.4502 107.96 81.6289 107.396 82.8574C106.864 84.0859 106.35 85.248 105.852 86.3438C105.387 87.4395 104.972 88.4023 104.606 89.2324C104.241 90.0625 104.009 90.627 103.909 90.9258C103.577 91.7891 103.195 92.6025 102.764 93.3662C102.299 94.1299 101.784 94.7939 101.22 95.3584C100.622 95.9561 99.958 96.4209 99.2275 96.7529C98.4639 97.1182 97.6172 97.3008 96.6875 97.3008C95.4922 97.3008 94.5127 97.0518 93.749 96.5537C92.9521 96.0889 92.5537 95.1758 92.5537 93.8145C92.5537 93.1504 92.6533 92.4697 92.8525 91.7725C93.0518 91.0752 93.3008 90.3779 93.5996 89.6807C93.8984 89.0166 94.2139 88.3525 94.5459 87.6885C94.8447 87.0576 95.127 86.4434 95.3926 85.8457C97.1855 82.5254 99.0117 79.1885 100.871 75.835C102.73 72.5146 104.507 69.2275 106.2 65.9736C107.927 62.6865 109.521 59.4658 110.981 56.3115C112.442 53.1572 113.654 50.1357 114.617 47.2471C114.883 46.6494 115.248 45.8027 115.713 44.707C116.178 43.6113 116.709 42.5322 117.307 41.4697C117.904 40.4072 118.568 39.4941 119.299 38.7305C120.062 37.9336 120.876 37.5352 121.739 37.5352C123.067 37.5352 124.03 37.8008 124.628 38.332C125.226 38.8301 125.524 39.5771 125.524 40.5732C125.524 40.7725 125.491 41.0879 125.425 41.5195C125.358 41.9512 125.275 42.416 125.176 42.9141C125.076 43.3789 124.96 43.8271 124.827 44.2588C124.728 44.6904 124.628 45.0059 124.528 45.2051C125.757 44.0762 127.085 42.9639 128.513 41.8682C129.94 40.7393 131.418 39.7266 132.945 38.8301C134.473 37.9336 136.033 37.2031 137.627 36.6387C139.221 36.0742 140.814 35.792 142.408 35.792C143.504 35.792 144.583 35.9248 145.646 36.1904C146.741 36.4561 147.704 36.8545 148.534 37.3857C149.397 37.8838 150.095 38.5312 150.626 39.3281C151.157 40.0918 151.423 40.9883 151.423 42.0176C151.423 43.3789 151.008 44.8398 150.178 46.4004C149.381 47.9277 148.368 49.4717 147.14 51.0322C145.911 52.5928 144.583 54.1201 143.155 55.6143C141.728 57.0752 140.383 58.4199 139.121 59.6484C137.893 60.8438 136.847 61.873 135.983 62.7363C135.153 63.5664 134.722 64.1309 134.688 64.4297C134.688 64.8281 134.838 65.1602 135.137 65.4258C135.436 65.6582 135.934 65.7744 136.631 65.7744C137.195 65.7744 138.025 65.5088 139.121 64.9775C140.217 64.4463 141.744 63.5332 143.703 62.2383C145.695 60.9102 148.202 59.1504 151.224 56.959C154.278 54.7344 158.03 51.9453 162.479 48.5918ZM188.727 40.4238C189.656 39.6934 190.437 39.1455 191.067 38.7803C191.731 38.3818 192.296 38.0996 192.761 37.9336C193.226 37.7344 193.641 37.6182 194.006 37.585C194.404 37.5518 194.803 37.5352 195.201 37.5352C195.898 37.5352 196.396 37.8008 196.695 38.332C196.994 38.8301 197.144 39.3613 197.144 39.9258C197.144 40.3906 197.061 40.8223 196.895 41.2207L185.738 64.4795C187.332 63.2842 189.158 62.1221 191.217 60.9932C193.309 59.8311 195.301 58.8018 197.193 57.9053C199.119 56.9756 200.763 56.2285 202.124 55.6641C203.519 55.0996 204.315 54.8174 204.515 54.8174C205.345 54.8174 206.075 55.1328 206.706 55.7637C207.337 56.3945 207.652 57.1914 207.652 58.1543C207.652 59.0176 207.32 59.9307 206.656 60.8936C206.025 61.8564 204.896 62.7861 203.27 63.6826C200.945 64.9775 198.92 66.0898 197.193 67.0195C195.467 67.916 193.939 68.7295 192.611 69.46C191.283 70.1904 190.104 70.8545 189.075 71.4521C188.046 72.0498 187.066 72.6641 186.137 73.2949C185.24 73.9258 184.344 74.5898 183.447 75.2871C182.584 76.0176 181.638 76.8643 180.608 77.8271C179.845 79.8193 179.081 81.7285 178.317 83.5547C177.587 85.3809 176.906 86.9912 176.275 88.3857C175.678 89.7803 175.18 90.9092 174.781 91.7725C174.383 92.6357 174.167 93.1006 174.134 93.167C171.444 98.7451 168.489 101.534 165.269 101.534C163.94 101.534 162.861 101.086 162.031 100.189C161.201 99.3262 160.786 98.1475 160.786 96.6533C160.786 95.2588 160.952 93.8643 161.284 92.4697C161.649 91.1084 162.264 89.5977 163.127 87.9375C164.023 86.2773 165.186 84.418 166.613 82.3594C168.074 80.334 169.9 77.9434 172.092 75.1875L182.053 55.0166C177.072 60.9268 172.557 65.4424 168.506 68.5635C164.455 71.6846 160.67 73.2451 157.15 73.2451C156.021 73.2451 155.059 72.9795 154.262 72.4482C153.465 71.9502 153.066 71.1035 153.066 69.9082C153.066 68.248 153.465 66.3721 154.262 64.2803C154.727 63.1514 155.191 62.1221 155.656 61.1924C156.121 60.2295 156.603 59.2832 157.101 58.3535C157.599 57.3906 158.113 56.3613 158.645 55.2656C159.209 54.1699 159.807 52.9414 160.438 51.5801C161.102 50.1855 161.815 48.5918 162.579 46.7988C163.376 44.9727 164.256 42.8477 165.219 40.4238C165.883 39.1289 166.746 38.1992 167.809 37.6348C168.871 37.0371 169.9 36.7383 170.896 36.7383C171.926 36.7383 172.789 36.9873 173.486 37.4854C174.217 37.9502 174.582 38.5811 174.582 39.3779C174.582 39.7764 174.516 40.125 174.383 40.4238L165.269 59.3994C164.804 60.3623 164.571 61.126 164.571 61.6904C164.571 62.1885 164.771 62.4375 165.169 62.4375C165.534 62.4375 165.999 62.2549 166.563 61.8896C167.128 61.5244 167.659 61.1094 168.157 60.6445L188.727 40.4238Z" fill="white"/>
</svg>
